<?xml version="1.0" encoding="UTF-8"?>
<svg width="990px" height="640px" viewBox="0 0 990 640" version="1.1" xmlns="http://www.w3.org/2000/svg" xmlns:xlink="http://www.w3.org/1999/xlink">
    <title>sant1458_en</title>
    <g id="en" stroke="none" stroke-width="1" fill="none" fill-rule="evenodd">
        <g id="sant1458_en">
            <rect id="background" fill="#FFFFFF" x="0" y="0" width="990" height="640"></rect>
            <g id="division-grey" transform="translate(236.000000, 114.000000)" fill-rule="nonzero">
                <path d="M584,408 C582.63288,408 578.18436,406.43324 576,404 C574.989301,402.87415 573.841008,400.559699 572,399 C569.993886,397.300423 567.245447,396.347688 565,395 C560.69392,392.41554 555.57449,389.25633 554,388 C553.236221,387.390565 552.35467,385.313614 551,385 C548.628933,384.451084 546.722406,383.583918 544,383 C539.27356,381.986244 535.157845,380.307026 531,381 C525,382 521.32443,382.18368 519,380 C517.54104,378.62937 516.4697,377.33126 514,377 C511.970351,376.727766 509.308412,377.133349 507,376 C505.507972,375.267467 504.334766,373.360026 503,372 C501.690023,370.023356 500.690023,368.690023 500,368 C499.578912,367.578912 498.912245,367.245579 498,367 L501.92521,359.99708 C506.06533,351.66233 505.22071,338.41038 498.92736,312.96146 C496.10786,301.56001 493.80081,290.06973 493.80081,287.42748 C493.80081,283.18528 494.40867,282.03245 498.99953,277.57065 C501.85893,274.79163 505.61068,271.78759 507.33675,270.895 C508.275662,270.409471 509.496746,269.777804 511,269 C511.900917,270.313957 512.900917,271.980624 514,274 C516.93182,279.38672 520.64866,282 525,282 C527.62215,282 533.37747,285.10214 536,288 C538.98042,291.29333 542.24358,293.04359 548,294 C549.53658,294.255298 551.021584,294.500086 552,295 C552.876603,295.447894 554.206486,295.665379 555,297 C555.425986,297.716472 556.700854,298.984715 557,300 C557.111109,300.377099 556.8202,300.732284 557,301 C559.21261,304.2945 563.03198,305.16725 566,306 C568.48976,306.69855 569.04463,308.6278 571,311 C574.52928,315.28164 584.24106,320.70899 592,323 L598,325 L593.63409,329.11757 C589.89258,332.99757 587.92557,337.40914 587.92557,341.92055 C587.92557,345.10561 596.02094,353.84089 607.26888,362.79287 L612.60548,367.04017 L589,411 C586.547893,409 584.881227,408 584,408 Z" id="path4152" fill="#CCCCCC"></path>
                <path d="M155,177 C154.58185,176.58184 154.6167,173.04297 155,171 C156.04302,165.44026 156.1985,164.59481 152,162 C147.20123,159.03419 145.08431,159.0242 143,162 C142.609562,162.557427 142.73065,163.597786 142,164 C141.604844,164.217528 140.418576,163.939226 140,164 C137.137113,164.415669 133.57237,162.526104 133,160 C132.69512,158.65442 132.64262,154.01227 132,151 C130.95908,146.1207 129.68637,146.34616 120,137 C114.02005,131.23007 110.10749,126 109,126 C107.89251,126 106.50969,127.01081 105,128 C103.84086,128.759492 102.154423,130.367143 101,130 C99.5058953,129.524827 98.6213572,126.748499 98,125 C96.01638,119.41811 96.89994,119.30971 93,119 C90.7390974,118.820448 87.877122,119.223059 86,119 C85.0013934,118.881335 84.6593617,118.255836 84,118 C82.0711301,117.251587 81.9014788,115.743267 81,114 C79.94393,111.95779 79.45493,111.00917 77,110 C71.3224478,107.666086 65.7934536,105.489549 65,101 C64.7926737,99.8268985 63.5788191,99.4752518 64,98 C64.2939814,96.9702841 64.3356699,98.2393154 65,97 C65.7848372,95.5358771 63.9692637,94.1291022 65,92 C65.9102927,90.1196875 67.4411215,87.1028934 68,86 C70.52683,81.01354 71.36096,79.14799 71,72 L69,65 C67.7384141,62.9486784 66.7384141,61.6153451 66,61 C65.4050808,60.504234 64.4050808,60.1709007 63,60 C59.31495,56.63736 56.54074,53.34387 55,53 C47.61048,51.35077 43.81922,49.80525 40,42 C36.32494,34.48935 36.57791,33.41938 33,34 C29.84298,34.51231 27.674,33.76273 24,30 C22.3348248,28.2947063 21.0764067,26.2708558 19,25 C17.4078757,24.0255471 15.1439963,23.7134792 13,23 C10.9106219,22.3047037 8.4484817,21.9566424 7,21 C5.58808508,20.0675079 5.16538339,18.5242266 5,18 C4.68025,16.98646 4.62524,16.31322 4,15 C3.38369667,13.7055647 1.10811537,12.7233298 1,11 C0.859005778,8.75259023 3.16308755,5.72568355 5,4 L8,0 C10.1629085,0.490562603 11.8295751,1.15722927 13,2 C14.0075773,2.72551149 16.0075773,4.39217816 19,7 C24.3925,11.19046 26.97096,11.49856 31,12 C33.89772,12.36063 34.25525,11.09473 36,12 C36.8966137,12.4652062 37.9204283,14.0955037 40,15 C41.967135,15.8555927 44.9886531,16 46,16 C46.6542911,16 48.3957799,15.5789981 50,16 C51.8930361,16.4967971 53.7714012,17.9181401 56,19 C58.1894755,20.0628677 60.4624951,20.8340234 63,22 C69.95989,25.19805 73.88941,27.0807 75,27 C75.6210304,26.9548734 76.5586952,27.5935836 78,26 C79.1361838,24.7437746 80.6754838,21.4107872 82,20 C86.22014,15.50499 88.42249,15.3334 90,16 C91.12319,16.47462 92.65627,17.07294 94,17 C94.8713995,16.9526854 96.9606287,15.400468 99,17 C100.913112,18.5005036 103.892243,22.5992363 106,25 C112.26044,32.13074 117.14841,34 123,34 C124.120973,34 125.454307,34.6666667 127,36 L129,36 C129.225152,35.1347713 129.891818,34.4681046 131,34 C135.621178,32.0479783 141.881975,28 143,28 C144.80419,28 146.6373,31.81689 149,38 C151.4112,44.31004 151.80344,45.66044 156,49 C158.87191,51.28542 162.84828,53.92953 163,54 C163.15171,54.0705 160.94672,57.83836 158.97265,61.48309 C156.01281,66.94784 155.41453,69.23171 155.56075,74.50735 C155.91128,87.15408 164.02663,114.59929 178.18084,151.00592 C182.48305,162.0718 184.22375,173.77626 184,174 C183.77626,174.22374 181.97254,172.02004 180,171 C177.575111,169.746043 176.300333,170.498093 175,171 C173.746668,171.483766 172.452059,171.650509 171,174 C169.988748,175.63623 171.044619,179.564621 170,180 C169.427804,180.238482 167.752102,178.297025 166,178 C164.129758,177.682947 162.161622,179.000423 161,179 C159.2531,179 157.2531,178.333333 155,177 Z" id="path3120" fill="#CCCCCC"></path>
                <path d="M242.35988,149.74876 C238.70009,146.9573 238.53895,146.53971 239.01721,141.08628 C239.29358,137.93498 240.69548,132.65713 242.13254,129.35772 C243.517982,126.176834 244.706258,122.867365 246,122 C247.097899,121.263934 248.237281,122.713948 250,123 C255.86474,123.95171 256.29983,126.14386 253,131 C251.683544,132.937338 250.405366,134.491912 250,136 C249.578298,137.568865 250.073607,139.070344 251,140 C251.736829,140.739424 252.788408,140.13727 254,141 C254.840159,141.598248 255.564187,142.189852 256,143 C256.545452,144.01396 256.717887,145.257985 257,146 C257.545418,147.434567 258.536768,147.414765 261,148 C262.382972,148.328578 264.741648,150.152592 266,150 C266.791296,149.904045 268.481808,149.462566 269,149 C269.408159,148.635655 268.682321,148.263651 269,148 C270.93935,146.39048 277.29406,148.13815 282,151 C283.952013,152.187093 285.61868,153.187093 287,154 L287,168 C280.579513,166.334367 275.520387,164.819833 271.82262,163.4564 C257.82824,158.29641 246.90112,153.21254 242.35988,149.74876 Z" id="path3134" fill="#4D4D4D"></path>
                <path d="M360,304 C353.95832,301.66576 350,299.69122 350,297 C350,294.03793 348.28266,291.32179 343,290 C335.36498,288.08961 331.44922,286.66433 324,280 C320.12487,276.53317 317.05522,273.04999 316,273 C314.94478,272.95 314.44183,273.10407 312,273 C309.46699,272.892032 305.943878,274.281513 304,273 C302.657563,272.114991 302.586077,269.068143 302,267 C300.3488,261.17329 302.25159,260.35833 296,262 C292.58563,262.89662 288.53209,263.18295 285,261 C283.359807,259.986305 282.026473,258.986305 281,258 L287,154 C288.084077,155.177785 288.750744,155.844451 289,156 C290.647577,157.028172 292.594698,158.450302 294,161 C294.761907,162.38236 295.663249,163.461013 296,165 C296.195916,165.895355 296,167.437838 296,168 C296,172.93125 297.81172,173 305,173 C310.28537,173 311.78003,174.63694 314,177 C316.48942,179.64987 317.2118,179.17126 327,179 C335.94936,178.84342 334.44924,179.7353 335,178 C335.414934,176.692662 337.297466,174.876344 339,174 C340.754942,173.096679 345.331941,173.549234 348,174 C348.803383,174.135731 351.970067,174.194048 354,175 C354.530052,175.210449 355.710003,175.640368 356,176 C356.388297,176.481537 355.813121,176.891388 356,177 C356.682218,177.396497 351.839489,177.676676 352,178 C352.234539,178.472443 351.255068,178.218067 351.06653,179.20435 C350.272604,183.357503 357.276954,189.749812 363,191 C364.439649,191.314488 365.881044,190.280841 367,190 C371.43601,188.88664 374.48547,191.80567 377,197 C378.487586,200.072941 378.373666,201.675525 379,202 C379.616035,202.31914 380.532775,202.455701 383,201 C384.184232,200.301285 388.16936,198.334337 389,198 C391.506258,196.991219 393.072573,200.433786 397,207 C400.80587,213.36301 402,214 409,214 C412.405501,214 412,215 413,214 C413.666667,213.333333 416,213 420,213 C422.104153,213.853973 423.437487,213.52064 424,212 C424.35385,211.04346 424.228792,208.319348 425,208 C426.020476,207.577433 431.104933,209.991159 435,212 L440,215 L442,215 C442.541197,214.708548 444.207863,213.041881 447,210 C451.581091,212.809979 453.914425,215.143312 454,217 C454.0345,217.748532 452.186611,220.005282 452,221 C451.36689,224.37479 453.126565,223.586995 458,228 C461.68109,231.33331 462.68251,235.29769 464,237 C465.68972,239.18326 467.27144,239.30343 471,240 C472.509814,240.282066 474.33822,239.274457 476,240 C477.697642,240.741201 479.220835,243.220835 480,244 L483,247 L436.82555,277.69421 C412.01743,294.31787 387.77218,309.50029 387,310 C386.558384,310.285794 384.853863,312.049905 383,312 C381.612321,311.962644 380.15629,310.173394 379,310 C376.11326,309.5671 372.34624,311.27951 371,312 C370.240567,312.406435 368.581915,311.682248 367,310 C365.956141,308.889935 365.105328,307.021683 364,306 C362.511031,304.623708 360.967213,304.373689 360,304 Z" id="path3114" fill="#CCCCCC"></path>
                <path d="M189,200 C190.796847,193.791467 189.463513,189.458133 185,187 L180,182 L178,181 C176.022122,182.655606 174.688789,183.655606 174,184 C173.311211,184.344394 172.644545,184.344394 172,184 L170,182 C168.15851,179.18955 170,170 177,170 C184,170 201,192 201.45365,195.68393 C201.9073,199.36786 199.91214,200.9964 197,203 C193.55284,205.371707 190.886173,206.371707 189,206 C188.333333,204.666667 188,203.666667 188,203 C188,202.333333 188.333333,201.333333 189,200 Z" id="path3136" fill="#4D4D4D"></path>
                <polygon id="path5796" stroke="#CCCCCC" fill="#CCCCCC" points="629.93507 418.16246 633.3271 424.32978 641.4988 422.78795 635.94821 412.92024"></polygon>
                <path d="M672.16888,479.03151 C671.41988,478.67718 669.45158,477.48005 667.79486,476.37124 C664.78885,474.35936 664.77975,474.35521 663.37479,474.35713 C662.60047,474.35813 661.63245,474.25883 661.22364,474.13627 C660.26423,473.84871 658.28557,472.72933 656.81056,471.63968 C655.68413,470.80753 655.59094,470.7807 653.80397,470.77405 C651.20219,470.76405 648.92229,470.42895 647.60432,469.86197 C646.59404,469.42736 646.31232,469.13489 644.95428,467.11076 C642.28863,463.13767 640.9172,461.80181 636.12479,458.51022 C632.6863,456.14855 631.54908,454.99366 629.83637,452.12406 C627.46635,448.15318 626.40192,447.54138 621.29988,447.21757 C619.57191,447.1079 617.9004,446.92005 617.58543,446.80013 C616.14968,446.25346 615.97847,444.58931 617.09645,442.04725 L617.65488,440.7775 L617.0909,439.81513 C615.97255,437.9068 615.98752,437.91498 612.93218,437.54485 C608.57014,437.01641 608.35269,436.92177 607.27887,435.08421 C606.78008,434.23066 605.61579,432.78177 604.69156,431.86445 C603.31886,430.50202 602.37124,429.83698 599.51679,428.23276 C595.29361,425.85931 593.38436,424.377 591.38319,421.91795 C589.15454,419.17937 589.18378,419.27286 590.12044,417.88099 C590.86082,416.78079 591.58372,414.89843 591.58372,414.07077 C591.58372,413.86873 591.63902,413.64811 591.70665,413.5805 C591.77425,413.5129 592.9501,413.95368 594.31961,414.56004 C601.71797,417.83567 613.19947,422.04776 619.30476,423.72606 C624.73804,425.21964 626.66214,425.51856 630.83376,425.51718 C634.97974,425.51618 637.50428,425.20341 643.11298,423.9977 L646.47017,423.276 L648.1031,424.4329 C651.7057,426.98528 655.24283,430.58284 656.40167,432.87324 C656.87919,433.81703 657.02512,434.51553 657.18348,436.6153 C657.29056,438.03522 657.43456,439.2882 657.50347,439.3997 C657.57237,439.5112 658.32593,439.67244 659.17802,439.75801 C660.64968,439.90581 660.77318,439.96341 661.64408,440.90822 C663.37308,442.78396 664.60943,446.50044 664.21099,448.62434 C664.07624,449.34259 663.91874,449.51718 663.08205,449.87583 C661.91419,450.37644 660.52146,452.25519 660.52146,453.33 C660.52146,454.383 661.14128,456.51267 661.79999,457.72293 C662.74302,459.45559 663.56652,459.99868 665.70357,460.2973 C666.70614,460.43739 667.83651,460.55188 668.21549,460.55173 L668.90456,460.55151 L668.73559,461.719 C668.64269,462.36112 668.5221,463.41486 668.46769,464.06065 C668.37239,465.19146 668.39839,465.25806 669.17068,465.86481 C670.21253,466.68332 671.02854,467.08619 672.52997,467.52333 C673.63492,467.84504 673.88194,468.04218 675.08734,469.56438 C675.82119,470.4911 676.75956,471.46018 677.1726,471.71789 C677.98875,472.22711 678.61907,473.42835 678.86347,474.94025 C678.99457,475.75122 678.92667,476.00158 678.35087,476.83048 C676.37366,479.67682 674.75273,480.25395 672.16888,479.03157 L672.16888,479.03151 Z" id="path4010" stroke="#FFFFFF" stroke-width="0.26685578" fill="#FFFFFF" stroke-linejoin="round"></path>
                <path d="M641.73083,383.8532 C620.01929,370.93693 602.04775,357.53033 592.00489,346.75815 C589.65185,344.23422 589.30977,343.5038 589.49349,341.39582 C589.68073,339.24738 590.50977,336.37708 591.56223,334.23339 C592.33167,332.66618 592.79336,332.0356 594.22205,330.60056 C595.92049,328.89458 597.53273,327.67196 599.20565,326.82132 C599.67059,326.58491 600.09147,326.39148 600.14092,326.39148 C600.19032,326.39148 604.7255,330.31628 610.21898,335.11327 C618.04308,341.94538 620.5499,344.02266 621.78918,344.70097 C622.65932,345.17722 624.05149,346.00482 624.88291,346.54008 C626.46621,347.5594 627.21099,348.4101 631.96968,354.63468 L633.83639,357.07642 L635.67532,357.5303 C638.89314,358.32452 640.31959,359.23564 645.28168,363.66622 C649.34391,367.29333 651.25122,368.68662 654.31607,370.26581 C658.18673,372.26021 658.6957,373.21425 656.5155,374.38853 C655.09067,375.15596 654.51148,375.68443 652.55909,377.99852 C650.71864,380.17992 649.44157,381.17134 646.61058,382.61646 C645.4728,383.19727 644.18046,383.87439 643.73872,384.12118 L642.93557,384.5699 L641.73083,383.8532 L641.73083,383.8532 L641.73083,383.8532 Z" id="path4088" stroke="#FFFFFF" stroke-width="1.20000005" fill="#FFFFFF"></path>
                <polygon id="path5790" stroke="#CCCCCC" fill="#CCCCCC" points="612.20403 371.90756 607.88691 379.92508 617.9088 397.03939 626.0805 395.34338"></polygon>
                <polygon id="path5792" stroke="#CCCCCC" fill="#CCCCCC" points="595.39808 404.74854 592.00606 411.84096 601.71959 416.31226"></polygon>
                <polygon id="path5794" stroke="#CCCCCC" fill="#CCCCCC" points="603.72396 388.09677 599.40684 396.73102 613.43749 420.62939 623.92194 423.55887"></polygon>
                <polygon id="path5798" stroke="#CCCCCC" fill="#CCCCCC" points="621.76338 372.67847 635.79403 396.88521 639.49442 395.03501 638.87769 392.56808 638.56932 391.33462 638.56932 389.94697 638.72351 388.71351 639.34024 388.09677 639.49442 387.94259 635.94821 381.77527"></polygon>
            </g>
            <g id="map" transform="translate(12.000000, 14.732300)" stroke="#000000">
                <path d="M22.061527,4.6274 C25.015441,4.80824 27.859071,7.27828 31.056591,7.76209 C33.20818,6.70813 34.02272,4.45048 35.82777,2.99111 C36.95274,2.08238 38.42002,1.32756 39.64296,0.53693 C42.11687,0.47753 50.91545,3.54943 54.22308,4.2185 C55.17463,5.21733 56.18577,6.16938 57.21991,7.08168 C57.84144,10.00416 60.45708,17.1861 63.08031,18.80242 C64.22921,19.51017 66.12478,19.99026 67.4424,20.43871 C68.6109,22.54675 67.13313,26.31078 65.12588,27.38864 C58.99391,25.63836 54.20744,24.9185 48.36668,28.20671" id="path129" stroke-dasharray="4,2"></path>
                <path d="M170.46767,49.45755 C172.489,50.36599 174.75827,49.89783 176.87041,50.95613 C181.54284,53.29222 186.75827,55.33771 191.1791,58.17732 C195.01398,60.64321 198.42007,63.9904 202.35327,66.21631 C203.73007,66.99545 205.28365,67.4004 206.57742,68.39567 C210.68395,71.55399 213.91305,76.07706 218.56977,78.48019 C226.57756,82.6138 235.49816,81.99627 243.6435,85.0209 C249.3901,87.15676 259.34484,91.35341 265.31142,91.4241" id="path131" stroke-dasharray="4,2"></path>
                <path d="M364.11581,85.02862 C363.6084,88.69826 368.24577,96.2461 370.79436,98.79448 C374.10624,102.10224 382.94784,103.87661 387.28597,107.51435 C389.10708,109.04463 389.57508,111.04663 390.82997,112.96602 C392.20643,113.63078 393.23288,114.69262 394.50752,115.42039 C397.21735,116.9542 400.56825,117.85489 403.23092,119.50688 C407.40811,122.10242 410.32241,127.62878 411.58885,132.18346 C412.02172,133.74086 413.00907,135.16488 413.04418,136.81672" id="path135" stroke-dasharray="4,2"></path>
                <path d="M445.20197,193.91425 C452.60773,195.80997 459.90395,199.59382 465.91762,204.40397 C468.58819,206.53969 471.03477,210.44524 474.09459,211.90042 L474.77512,211.90042" id="path137" stroke-dasharray="4,2"></path>
                <path d="M562.67324,267.0944 C567.62494,266.28403 573.46165,264.74229 578.34663,266.27647 C587.33789,269.10403 589.73738,273.28507 596.74207,278.53978 C599.23549,280.40808 602.33126,280.81714 605.05685,282.22135 C607.1058,283.2793 609.13935,284.3452 611.45997,284.80936 C613.9221,285.30099 616.88772,285.21829 619.09032,286.71683 C620.22691,287.48772 625.05694,292.68331 625.35977,293.9381" id="path139" stroke-dasharray="4,2"></path>
                <path d="M663.38155,287.26374 C677.83193,291.68433 683.55067,291.35804 691.31859,305.52515 C694.06013,310.52449 696.45545,315.71211 697.58801,321.33248 C699.39739,322.85477 700.21935,324.9316 702.35892,326.10343 C706.17023,328.19564 710.38646,329.37584 714.21346,331.42113 C718.47711,333.69456 722.84677,336.99035 727.84184,337.69059" id="path141" stroke-dasharray="4,2"></path>
                <path d="M536.2346,389.19533 C541.2296,389.37796 543.47538,392.558 547.40862,393.14792 C549.37517,393.44085 551.36922,393.13582 553.40668,393.55695 C556.59246,396.7427 560.2502,398.76822 563.35358,402.00533 C565.66621,404.42049 566.44907,407.35044 568.52955,409.63564 L568.52955,410.18251" id="path143" stroke-dasharray="4,2"></path>
                <path d="M815.1224,199.96724 C814.65421,196.9859 812.63272,193.99286 810.35144,192.06171 C805.47826,188.32123 798.31226,189.72915 794.74879,198.40974" id="path833" stroke-dasharray="4,2"></path>
                <path d="M9.66424463,64.312567 C4.69274379,63.1562211 -2.77630692,52.253531 1.75861434,47.5494843 C7.80779812,50.043101 7.71733568,59.0185479 9.66424463,64.312567 Z" id="path271"></path>
                <path d="M30.1048221,51.3685724 L32.2837868,52.3243277 L30.7852569,53.8228576 L27.9219241,54.2319051 C26.8009766,54.8848079 25.601366,56.6586583 25.3339118,57.913333 C26.812776,61.1070503 30.4627387,61.048053 32.2837868,63.6360653 L29.6957745,64.3165002 C27.9258573,62.8297697 25.8176892,61.811084 24.2444295,60.0922977 C22.6239719,55.360719 25.4873047,52.0136089 30.1048221,51.3685724 L30.1048221,51.3685724 Z" id="path277"></path>
                <path d="M81.7510068,8.44217981 L83.5248572,8.44217981 L84.6143396,9.94070973 L84.2052921,11.4392396 L82.4314417,12.8001093 L79.1590614,12.8001093 L78.4786265,11.4392396 C79.7057691,11.0655905 81.2475637,9.59852573 81.7510068,8.44217981 L81.7510068,8.44217981 Z" id="path505"></path>
                <path d="M86.7933044,33.9250548 C84.4491473,33.6064697 81.361625,30.2278943 80.6615245,28.0646622 L82.5691019,27.3842273 C82.8365561,24.8276802 81.4481543,22.1531386 82.5691019,19.7539175 C83.8670412,19.4549981 85.7156214,18.3812483 86.5219171,17.2996323 L87.4737392,19.478597 C86.2898612,23.4510779 88.7284139,30.9909253 86.7933044,33.9250548 L86.7933044,33.9250548 Z" id="path511"></path>
                <path d="M122.089387,12.528722 C126.211328,13.6693354 129.322449,19.4982628 130.128744,23.4314122 L129.039262,25.8856974 L126.860297,25.4766499 C128.787541,22.5267878 125.491561,17.1029748 122.364708,16.4815372 L121.408952,14.4362995 L122.089387,12.528722 L122.089387,12.528722 Z" id="path517" fill="#CCCCCC"></path>
                <path d="M144.437542,34.8768769 C148.177967,38.2397197 144.252684,43.9034548 144.98425,47.5494843 L147.572262,47.5494843 L149.070792,45.9132941 L150.706982,45.6379737 C150.935105,50.6724049 150.435595,55.9585577 150.435595,61.0401867 L148.799405,62.6763769 L145.664685,62.6763769 C144.075692,61.0873845 142.565363,59.3489325 140.622387,58.176854 L139.261517,60.0844314 C139.375579,62.416789 136.822965,70.2280237 135.989137,72.7609719 L133.810172,73.7127941 C128.944866,71.8996122 128.091373,60.0765651 124.272285,57.9054667 C120.68132,56.3243406 114.982186,60.0883646 111.871065,57.0873716 L111.733405,54.9084068 C112.47677,53.7363283 114.439412,52.4777205 115.82388,52.3203945 C116.523981,51.2191127 116.850432,49.0834126 116.504315,47.8208716 C117.880917,47.9663981 119.89469,48.8631562 120.866178,49.8661093 L123.725577,50.1374966 C129.932087,46.4049378 129.228053,40.9850579 132.992077,37.1895688 C135.171042,36.4108052 140.704983,34.3891664 142.805285,34.326236 L144.437542,34.8768769 L144.437542,34.8768769 Z" id="path523" fill="#CCCCCC"></path>
                <path d="M167.336338,69.0834773 L167.06495,71.262442 L164.476938,71.262442 C160.496591,69.3155331 157.357938,55.7068361 159.706028,52.5917818 L161.884993,52.8631691 C163.525116,56.3007417 162.172113,60.1552281 163.112135,63.628199 C163.780771,66.1139495 166.199658,66.8887799 167.336338,69.0834773 L167.336338,69.0834773 Z" id="path529" fill="#CCCCCC"></path>
                <path d="M289.16564,96.745317 C290.345585,97.2605596 291.918845,98.6764933 292.438021,99.8800371 L290.530443,101.10718 L287.942431,100.560472 C287.10467,99.7974409 286.172514,98.7826884 285.763466,97.6971391 L286.990609,96.7413838 L289.16564,96.7413838 L289.16564,96.745317 Z" id="path535"></path>
                <polygon id="polygon541" points="298.974915 110.920387 297.204998 110.920387 297.476385 108.741423 298.974915 107.923328"></polygon>
                <path d="M375.156086,114.055107 C375.683128,116.627387 378.931909,119.297996 380.878818,121.004982 L381.559253,123.592995 L379.923063,125.229185 C374.42452,120.104291 366.636884,125.366845 364.929897,114.735542 L365.610332,112.281257 C368.977108,112.28519 372.292753,111.868276 375.156086,114.055107 Z" id="path547"></path>
                <path d="M354.168801,94.5663522 C355.470673,98.4483707 358.66439,101.071781 359.348758,105.331382 C358.341872,106.212408 355.922985,106.310736 354.715508,106.011817 L352.807931,104.650947 C352.591608,102.975426 349.362492,98.7669558 348.446068,96.4739297 L349.39789,94.1573047 C350.703696,93.7049925 352.945591,94.007845 354.168801,94.5663522 L354.168801,94.5663522 Z" id="path553"></path>
                <path d="M406.361693,146.625518 C403.152243,147.050298 389.201362,134.1771 388.784448,130.54287 L390.145318,128.635292 L393.008651,128.226245 C399.549478,133.142682 403.07358,139.105336 406.361693,146.625518 L406.361693,146.625518 Z" id="path559"></path>
                <path d="M733.289004,351.857253 L733.698052,354.036218 C731.601683,355.023439 728.459097,354.763851 726.339129,353.898558 C725.871085,352.537688 726.075608,350.771704 726.339129,349.399035 L728.246707,348.171892 C730.303744,348.419681 731.82194,350.56718 733.289004,351.857253 L733.289004,351.857253 Z" id="path565"></path>
                <path d="M755.365772,360.443319 C759.33432,361.552467 765.234044,365.682274 764.903659,370.256526 L763.133742,371.755056 L761.363825,371.074621 C760.612593,369.788481 759.731568,368.53774 758.775813,367.393193 C756.451321,366.897617 753.879042,366.18965 752.097325,364.529861 L752.368712,362.346963 C752.958685,361.579999 754.319554,360.459051 755.365772,360.443319 L755.365772,360.443319 Z" id="path571"></path>
                <path d="M767.086557,492.223489 C772.636231,495.613864 779.900758,495.228415 784.663802,499.991459 C788.124973,503.452631 782.158386,532.117424 782.893885,533.789012 C785.005986,535.437002 790.76805,538.949304 791.613677,541.010274 C791.106301,542.398676 791.184964,544.868694 791.885064,546.190232 C795.562559,548.204005 798.048309,547.983748 801.969659,548.778244 L803.739576,550.414435 L804.282351,552.86872 C805.458363,553.757612 807.959846,554.025066 809.324649,553.553088 L810.58719,554.382982 C811.019836,555.739919 811.129964,557.765491 810.689451,559.13816 C809.454443,560.097848 808.113239,560.974941 806.736636,561.726172 C805.769082,564.550173 806.036536,569.124426 803.330529,570.855012 C799.951954,572.518734 799.295118,570.733084 796.652041,569.90319 C788.840807,567.444971 778.583153,569.954321 775.259642,559.547207 C773.599853,558.327931 771.841735,557.309245 770.488731,555.732053 C770.071818,552.388876 771.267495,548.93557 768.581154,546.194165 C764.262556,543.810677 759.798431,546.194165 755.361839,546.194165 C751.464088,546.194165 751.582082,544.986688 748.549624,543.468493 C737.45421,537.918819 737.80426,539.134162 732.604636,527.385845 C732.769829,525.501866 733.473862,523.747682 733.694119,521.9345 C734.524013,515.141951 730.508268,510.103586 736.419791,504.490982 C744.541745,502.410346 746.752175,503.338569 748.549624,494.406387 L750.185814,492.770197 C751.570283,492.789863 753.741381,493.627623 754.681404,494.677774 C758.705016,494.972761 762.362845,492.022899 767.086557,492.223489 L767.086557,492.223489 Z" id="path577" fill="#CCCCCC"></path>
                <path d="M403.502294,289.442106 C406.184701,290.114674 407.514106,294.020291 407.997883,296.391981 L407.317448,298.979993 L404.863163,298.979993 C402.408878,297.174677 401.004744,294.26808 400.36364,291.349683 L401.86217,289.851153 L403.502294,289.442106 L403.502294,289.442106 Z" id="path583"></path>
                <path d="M288.347545,177.15069 L286.982743,179.058268 C285.590408,179.71117 283.147922,179.884229 281.669058,179.467315 C275.600208,173.134945 275.91486,175.644294 268.587403,173.473195 L267.906968,171.01891 C269.098712,170.090687 271.470401,169.547912 272.949265,169.658041 L274.585456,168.159511 C275.191161,166.456457 275.509746,164.513481 275.537278,162.708166 L276.902081,160.800588 L279.490093,160.120153 C284.261003,164.061169 290.31412,169.941227 288.347545,177.15069 L288.347545,177.15069 Z" id="path589" fill="#CCCCCC"></path>
                <path d="M240.512582,164.61181 C243.997353,168.918608 247.261867,171.797674 249.507695,177.15069 L247.600118,177.831125 C243.836094,176.466322 237.661049,169.689506 237.653183,165.567565 L239.289373,164.61181 L240.512582,164.61181 L240.512582,164.61181 Z" id="path595" fill="#CCCCCC"></path>
                <path d="M201.401345,117.598875 C208.901861,128.061053 213.212592,119.911567 218.573475,121.68935 C218.931392,124.564483 217.322734,127.156428 218.302088,130.004028 C220.386657,130.916519 227.281468,132.470113 228.386683,134.090571 L230.022873,133.001088 C230.129068,131.813277 231.320812,130.165287 232.339498,129.594981 C234.691521,129.917499 236.957015,133.614659 239.289373,134.637278 C241.397541,135.557635 244.083882,135.467173 246.239248,136.544856 C247.737778,137.292154 267.332728,154.944129 267.906968,156.167338 C267.08494,157.05623 265.979725,157.799595 264.909908,158.346303 C263.057395,158.247974 261.708324,157.488876 260.001338,157.11916 C255.875464,156.226335 246.597164,158.802548 244.33167,154.802535 L244.33167,152.214523 L245.421153,150.715993 C245.743671,149.327591 245.547014,146.896905 244.740718,145.673696 L242.152706,144.993261 C238.687601,149.284327 234.325738,150.503603 229.071051,149.764171 C226.494838,146.472125 214.781919,139.770038 210.675711,137.225291 L208.768134,137.771998 C209.212579,142.373783 213.802565,147.840861 215.718009,152.218456 C211.371878,152.682568 199.87135,152.627504 199.230246,146.633384 C198.404285,146.204671 196.6619,145.414108 195.686479,145.677629 C194.199748,147.164359 192.811346,148.780884 190.915568,149.768104 L188.327556,149.768104 L187.647121,147.313819 C188.359021,143.998174 190.203668,141.087643 190.919502,137.771998 L190.239067,135.864421 C181.259687,133.260676 169.932216,132.871294 166.663769,122.098398 L167.890912,120.733595 L169.527102,121.68935 C172.551694,121.358966 175.808342,119.419923 178.793602,120.733595 C181.637269,123.467134 185.330496,129.233131 190.239067,126.460261 L191.194822,124.277363 C190.844772,121.70115 187.871311,120.167222 187.104347,117.598875 C189.696292,114.861403 195.458356,116.336334 198.825132,115.691298 C199.257778,116.297003 200.532119,117.665739 201.401345,117.598875 L201.401345,117.598875 Z" id="path601" fill="#CCCCCC"></path>
                <path d="M149.75516,69.6262519 C153.342192,77.2408291 157.814183,75.0579312 163.79257,76.5761269 L164.473005,81.6184244 L166.380582,82.2988592 C167.635257,81.3903017 169.047258,80.5997387 170.471058,79.9822342 C172.85848,81.8898117 176.709033,82.4168537 178.510415,84.7492113 C178.624477,88.7256254 184.642195,93.1700842 188.323623,90.8809912 L187.914575,87.8839314 L189.550766,86.3854015 C193.570444,86.8337805 196.23712,89.3391967 199.769088,90.8849244 C202.561624,90.5978045 204.166349,88.3913077 207.12801,88.5682994 C209.708156,89.4296591 210.793706,91.0107852 212.850743,92.3834543 C215.887134,94.4090262 220.66591,92.7138389 220.8901,98.377574 C219.049386,102.346122 213.023801,103.415938 213.531177,109.417924 C214.679657,110.196688 215.741607,111.927274 216.11919,113.233079 C212.929406,115.530039 206.55377,111.238973 204.536065,108.73749 C200.752375,108.285177 197.365933,110.251752 193.495714,109.008877 C187.965706,107.231093 185.656948,100.210422 180.685447,97.0167043 C173.711973,92.532914 164.370743,91.7030195 157.790584,86.3854015 C156.602773,85.425713 155.729614,84.1553058 154.246817,83.5220687 C151.481813,82.3499902 148.83087,83.8839184 146.207459,82.5702465 C144.992116,80.607605 143.47392,78.818022 142.801352,76.5721937 C143.045207,74.1021759 145.070779,69.5397226 147.572262,68.6704966 L149.75516,69.6262519 L149.75516,69.6262519 Z" id="path607" fill="#CCCCCC"></path>
                <path d="M116.504315,28.2023224 C117.574132,27.6556146 119.717698,27.4628903 120.866178,27.6556146 C123.560385,28.1197263 124.024497,30.4166855 126.317523,31.061722 C128.842605,31.773622 131.525012,31.3724408 133.676445,33.2406868 L132.315576,33.9211216 C130.557458,33.3114835 127.410938,34.0037178 126.046135,35.2859245 L124.681333,40.328222 C122.66756,41.8700166 120.158211,43.0617608 117.593797,42.2357995 C116.653775,41.0047237 116.38632,38.2357865 116.638042,36.7844544 C115.489562,36.1512173 114.506275,34.0941802 114.459077,32.8316392 C114.604604,31.3803071 115.485629,29.2682059 116.504315,28.2023224 L116.504315,28.2023224 Z" id="path613" fill="#CCCCCC"></path>
                <path d="M915.830401,561.781236 L913.651436,562.736992 C909.911011,561.104735 908.778264,555.602259 909.698621,551.971962 L911.334811,551.016206 L912.971002,551.425254 C914.485264,553.639617 916.644563,559.197157 915.830401,561.781236 L915.830401,561.781236 Z" id="path769"></path>
                <path d="M810.571457,420.15246 C814.905788,421.875179 819.401377,423.251781 823.845836,424.687381 L843.334591,441.721851 C845.784944,443.700225 848.675808,444.219401 850.831174,446.764148 C853.108468,449.454423 855.255967,452.565544 857.509662,455.350214 C858.996392,455.668799 860.931502,456.13291 862.280572,456.848743 C867.527393,459.645213 871.090827,465.017895 876.72703,468.022821 C878.858797,469.159501 880.904035,469.47022 882.040715,471.975636 L881.494007,473.883214 C877.029882,475.767192 877.234406,477.820296 874.135084,480.424041 C870.056408,483.849814 866.158657,483.381769 862.823347,488.734786 C862.68962,490.70136 862.811547,492.805595 863.232394,494.728905 C861.084895,496.369029 858.017038,497.75743 855.602084,499.090768 L853.014072,498.410333 C852.133047,497.309051 850.862639,496.321831 849.607965,495.684661 C845.895072,496.369029 842.551895,497.454578 838.705275,497.454578 L837.478132,499.499816 C836.990421,503.767283 843.381789,507.472309 846.744632,509.175363 C847.731852,511.558852 846.721033,514.945293 848.514549,516.805673 L850.559787,517.352381 C853.27366,516.058375 856.825294,512.349415 859.417239,510.402506 C861.139959,510.197982 863.531314,510.359241 865.139972,511.082941 C867.440864,514.0918 869.041656,518.095746 870.182269,521.71031 C873.348455,523.429096 880.365193,529.556943 881.084959,533.159708 C881.387812,534.670037 880.986631,536.196099 881.494007,537.792958 L884.35734,538.202006 C887.543191,540.746753 889.179381,545.596327 888.038768,549.513743 L885.859803,550.469499 L884.63266,552.377076 C884.581529,554.406581 885.627747,557.085056 887.358333,558.237469 C889.297375,558.544254 891.260017,558.77631 893.218725,558.917904 C892.82541,560.558027 892.632686,562.280746 892.53829,563.960201 C893.466514,564.97102 895.539283,565.836313 896.900153,565.867779 C898.717268,567.173584 899.535363,569.800928 901.671063,570.501029 C902.599287,571.68884 903.145994,574.068395 903.035866,575.543326 C898.146961,584.565971 892.884408,577.926815 887.362266,574.725231 C883.834231,575.358468 880.888302,573.179503 878.229493,571.185397 C865.11244,571.185397 869.934481,568.184404 862.693553,561.781236 C859.983613,559.385948 856.105528,557.694694 853.69844,554.831361 C852.313972,553.183372 851.373949,550.599293 849.883285,549.108629 C847.480131,546.709408 842.500764,548.231537 839.389643,546.929664 L838.1625,545.155814 C838.091703,543.673016 838.551882,541.376057 839.389643,540.113516 L838.1625,538.205939 C835.586287,537.777226 832.39257,537.962084 830.123143,536.569749 C825.757347,526.591349 818.248965,530.752621 810.772048,518.036749 C812.730756,516.656213 813.808439,513.824346 813.63538,511.495921 C812.667826,509.710271 811.908728,508.785981 810.941173,508.164544 C808.793673,506.626682 806.477048,507.24812 803.074874,505.981646 C800.325603,504.959027 799.590104,501.489989 797.623529,499.712206 C791.369822,494.056337 780.754251,491.00028 775.137714,484.313926 C769.780765,483.476165 764.868261,480.970749 759.739434,480.361111 C755.814151,479.893066 751.814138,481.643317 748.018649,481.450593 C743.110078,481.206738 742.689231,478.174279 739.703971,476.679683 C736.801307,475.228351 732.569238,476.3021 729.753103,474.500718 C727.141492,472.829129 725.532834,468.797651 722.531841,466.595088 C719.629177,466.414163 714.571146,466.221438 712.856293,463.460368 C711.342031,463.153582 709.198464,462.866462 707.813996,462.233225 C704.376423,460.671765 704.765805,456.915607 702.228924,455.28335 C696.864108,451.833978 691.947671,451.78678 687.235758,446.425898 C685.721496,445.922454 678.429437,447.436717 676.333068,447.786767 C669.198335,444.085674 654.05571,435.334416 646.625991,437.973559 L644.447026,437.017804 C638.476505,429.218369 642.071404,428.168218 632.407655,421.481864 C630.035966,419.841741 627.506951,418.083623 624.549223,417.800436 C621.615093,417.521183 619.180474,419.287167 616.509866,418.756192 L614.873675,417.120001 C615.227659,414.838775 615.609174,410.94889 614.326968,408.942984 L612.148003,408.667663 C610.755668,409.296967 609.379066,410.154394 608.195188,411.121949 C604.545225,411.287141 602.826439,407.920365 598.6573,409.348098 C597.327896,409.804343 596.03389,411.019687 594.570758,411.530996 C591.793955,410.964623 589.205942,407.865301 588.710366,405.123896 C587.310164,405.324486 586.252147,404.352998 585.028938,403.896753 C577.709347,401.178947 578.625771,402.571282 573.445813,396.40017 C573.65427,394.90164 573.146893,392.447355 572.21867,391.224146 C567.380896,388.089426 562.499858,388.990117 557.638485,386.862283 C550.802672,383.873089 544.580429,372.53382 537.878343,371.73539 C534.79082,371.365674 532.088747,372.789474 529.02089,372.415825 C525.292265,370.96056 525.772109,364.494462 524.24998,361.108021 L521.661968,360.427586 C511.113261,365.871065 509.819255,358.594738 503.128968,357.292866 C499.655997,356.616364 495.655984,358.944789 492.363938,357.292866 C489.315747,354.244675 489.115156,353.0018 488.273463,348.844461 C486.999122,349.107982 486.149562,348.337085 485.005015,348.164026 C472.890915,346.327245 479.081692,340.458986 472.603795,335.896533 C468.548718,335.428488 465.732583,339.872947 461.567378,340.529783 L459.797461,339.031253 C459.305817,335.515018 460.127845,331.247551 458.979366,327.994836 C455.368735,317.760781 440.812149,325.395024 436.35589,312.592623 L434.448313,311.22782 C431.679376,311.042962 428.257536,312.222907 425.724588,310.956433 C425.087417,309.788287 424.249657,308.59261 423.270302,307.684052 C420.33224,307.684052 415.301742,307.294671 413.05198,305.229767 C408.233872,297.941641 421.748174,295.975067 407.053927,284.108755 C405.264344,282.661356 403.978205,280.572854 401.602582,280.01828 L398.467862,283.29066 L396.013577,283.29066 C393.822813,281.85506 393.988005,278.956329 391.651714,277.839315 C388.119746,276.942557 381.484523,279.829488 379.112834,276.474512 C378.007619,273.626912 379.797202,269.331913 379.930929,266.252257 C377.897491,262.53543 373.158046,258.228632 368.481531,259.164721 C367.498244,260.332867 366.668349,261.902193 366.302566,263.388924 C353.657491,265.099844 357.95249,252.100785 355.128489,246.625841 C354.656511,245.713351 354.074405,244.804793 353.449034,243.990631 C352.505078,242.763488 351.745981,242.5157 350.632899,241.583544 C347.942625,239.321983 344.253331,237.091887 342.046834,234.362281 C340.233652,232.120386 338.577796,229.308184 336.324102,227.412406 C335.104825,226.389788 333.578763,225.536294 331.962239,225.367169 C329.598416,226.098734 328.139218,228.04171 326.101846,229.319984 C321.386,228.222635 322.758669,222.472371 320.103794,219.506776 C317.303391,217.477271 312.587545,219.258988 309.338764,218.141973 C304.677982,216.545115 305.448879,211.290427 301.979841,209.422181 C294.664183,208.702415 290.96309,204.580474 287.942431,198.110443 L289.169574,196.065206 C289.346565,194.429015 289.122376,192.584368 288.626799,191.022908 C289.912939,187.329681 292.839202,184.486014 294.078144,180.666926 C295.702535,175.644294 295.352484,164.159498 290.534376,160.769123 C289.558955,160.084755 287.918832,159.954961 286.990609,159.270593 C285.090898,157.870392 282.97093,153.831047 281.267876,152.867426 C277.783106,150.892985 273.448775,151.915604 269.547091,148.914611 C263.879423,144.556681 263.049528,138.668756 260.142931,132.698236 C257.696512,132.434715 254.931508,133.81525 252.646348,133.244943 C251.159618,132.871294 246.549967,126.995169 244.740718,125.476973 C240.138933,121.610687 233.830162,122.932226 229.067118,118.798486 C228.551875,117.154429 228.142828,115.451376 227.839975,113.756188 C226.719027,113.103285 225.519417,111.329435 225.251963,110.078693 C225.692475,106.224207 230.034672,101.268439 232.882273,98.7669558 C239.977674,101.646021 243.615837,108.367773 250.18813,110.621468 C253.307117,111.691285 256.009191,110.770928 259.045582,111.301903 C261.358274,111.707017 262.982665,113.99611 264.905975,114.70801 C267.611982,115.710963 270.727036,114.413024 273.625767,115.117058 L298.837255,126.700183 L301.29154,126.019748 C305.264021,121.520225 309.881538,111.207507 317.916963,116.615588 L320.095927,115.659832 L322.68394,116.340267 C327.38012,120.222286 330.971085,127.349152 336.040915,130.786725 C341.193341,134.283295 346.979003,130.476006 351.301535,135.829023 L353.480499,135.010927 L354.707642,132.96569 C358.802051,132.273456 363.486432,126.708049 367.789297,127.785732 C371.993834,128.835883 373.15018,140.407208 376.513022,144.411155 C381.854239,150.767124 390.09812,154.153566 396.001778,159.809434 C399.899529,163.545926 400.933947,169.087734 404.450183,172.757362 C406.503286,174.900929 409.413817,176.218534 411.400057,178.208707 C418.916306,185.724956 423.718681,195.353306 433.476825,200.556862 C438.302799,203.133075 444.218256,200.946244 449.55554,203.282535 C450.633223,205.38677 452.584065,206.786971 454.18879,208.458559 C462.01969,209.123262 463.199635,215.664089 468.08854,219.770297 C471.317655,222.480237 474.279317,221.457618 477.35504,223.176404 L478.715909,225.083982 L478.715909,227.675927 C476.906661,230.083015 475.235072,232.67496 473.535952,235.168577 L473.535952,237.756589 L475.172142,239.392779 C477.461235,239.451777 479.805392,241.095833 480.894874,243.074207 L481.166262,245.93754 L482.802452,247.43607 C485.709049,246.857897 487.825083,248.490154 490.432762,249.343647 L492.340339,248.79694 L493.296094,246.617975 C500.619618,246.260058 523.121166,256.671105 520.277499,269.646565 L521.229321,271.825529 C526.904856,275.577754 533.315889,267.998575 539.490934,277.823582 C545.665979,280.977968 552.360199,275.908138 558.570642,278.504017 C559.357272,277.339805 559.982642,276.002534 560.478219,274.688862 C566.779125,270.122476 571.262915,274.614132 578.464511,274.279815 L580.509749,275.640684 L579.553994,277.139214 L576.281613,277.139214 L575.054471,279.046792 C575.062337,282.92881 584.497963,290.362462 587.864738,290.49619 C595.101733,285.57582 601.87855,293.984893 602.720244,300.718445 L605.308256,301.53654 C607.624881,299.794155 610.865796,297.099947 613.894321,297.446065 C619.518725,299.585698 622.444988,311.719464 626.704589,313.115732 C628.407642,312.734216 630.275888,312.572957 632.018274,312.706684 C632.958296,313.536579 634.743946,314.047888 635.971089,314.071487 C637.744939,312.16391 642.775437,310.767642 644.828541,312.706684 C645.870826,312.742083 647.035038,312.313369 647.963261,311.888589 C648.69876,310.692912 648.824621,308.175696 648.643696,306.846292 C652.875765,307.829579 659.943634,311.353681 663.499201,314.067554 L666.087214,314.067554 C668.36844,313.127531 669.01741,310.767642 670.858124,309.296644 C673.033156,310.488388 676.639854,312.871877 678.217046,314.747989 C678.535632,317.151143 676.152143,318.84633 675.900422,321.288816 L676.989904,323.471714 C684.494353,327.861109 684.451088,332.773612 690.209219,338.051899 C693.100084,339.271175 697.808064,339.149248 701.111909,339.825749 C703.314473,342.028313 705.02146,344.396069 707.106029,346.637964 C724.333223,352.683215 717.690134,355.892665 725.367642,361.898584 C728.168044,364.093281 733.363734,365.359755 735.180849,368.034297 C737.371613,371.263413 738.095313,375.30669 741.041242,378.256552 C744.51028,381.72559 750.638126,381.00189 754.940992,383.29885 C758.89774,385.410951 761.100304,389.989137 765.434634,391.884915 C768.88794,393.395244 775.401235,392.966531 778.107242,395.153362 C780.034485,396.710889 780.884045,400.927225 782.878152,402.921332 C785.108248,405.151428 787.711993,404.03048 790.237075,405.100297 C793.639249,406.543763 794.496675,410.425781 797.18695,412.59688 C801.371821,416.002987 805.446563,418.237016 810.571457,420.15246 L810.571457,420.15246 Z" id="path807" stroke-linejoin="round"></path>
            </g>
            <g id="labels" transform="translate(32.000000, 92.000000)">
                <line x1="304.83601" y1="123.44049" x2="214.5124" y2="182.22252" id="path4155" stroke="#000000"></line>
                <line x1="403.76186" y1="134.91015" x2="432.43603" y2="54.6225" id="path4157" stroke="#000000"></line>
                <polyline id="path4159" stroke="#000000" points="396.59332 210.89668 389.42478 311.25624 456.80906 172.18656"></polyline>
                <line x1="601.61358" y1="258.20905" x2="637.45628" y2="157.84948" id="path4161" stroke="#000000"></line>
                <line x1="651.79336" y1="348.53265" x2="538.53042" y2="390.11019" id="path4163" stroke="#000000"></line>
                <line x1="806.63383" y1="364.30344" x2="792.29675" y2="285.4495" id="path4165" stroke="#000000"></line>
                <line x1="823.83833" y1="410.1821" x2="872.5844" y2="360.00232" id="path4167" stroke="#000000"></line>
                <polyline id="path4169" stroke="#000000" points="726.34618 380.07423 648.92594 474.69896 726.34618 451.75963"></polyline>
                <line x1="843.91024" y1="466.09671" x2="840.5" y2="507.5" id="path4245" stroke="#000000"></line>
                <text id="tspan4175" fill="#000000" fill-rule="nonzero" font-family="Lato-Regular, Lato" font-size="28" font-weight="normal">
                    <tspan x="144.84979" y="208.02927">Zabana</tspan>
                </text>
                <text id="text4" fill="#000000" fill-rule="nonzero" font-family="Lato-Italic, Lato" font-size="21" font-style="italic" font-weight="normal">
                    <tspan x="356.85203" y="327.02701">recent</tspan>
                    <tspan x="334.30328" y="352.02701">Cheke Holo</tspan>
                    <tspan x="346.95053" y="377.02701">enclaves</tspan>
                </text>
                <text id="text3" fill="#000000" fill-rule="nonzero" font-family="Lato-Italic, Lato" font-size="21" font-style="italic" font-weight="normal">
                    <tspan x="864.39917" y="298.42477">mixed</tspan>
                    <tspan x="840.43817" y="323.42477">Cheke Holo</tspan>
                    <tspan x="849.16892" y="348.42477">Bughotu*</tspan>
                </text>
                <text id="tspan4215" fill="#000000" fill-rule="nonzero" font-family="Lato-Regular, Lato" font-size="28" font-weight="normal">
                    <tspan x="618.23865" y="147.81354">Kokota</tspan>
                </text>
                <text id="tspan4219" fill="#000000" fill-rule="nonzero" font-family="Lato-Regular, Lato" font-size="28" font-weight="normal">
                    <tspan x="460.97009" y="420.21808">Blablanga</tspan>
                </text>
                <text id="tspan4225" fill="#000000" fill-rule="nonzero" font-family="Lato-Regular, Lato" font-size="28" font-weight="normal">
                    <tspan x="771.07349" y="276.84726">Gao</tspan>
                </text>
                <text id="tspan4243" fill="#000000" fill-rule="nonzero" font-family="Lato-Regular, Lato" font-size="28" font-weight="normal">
                    <tspan x="537.49255" y="507.67426">Cheke Holo</tspan>
                </text>
                <text id="text2" fill="#000000" fill-rule="nonzero" font-family="Lato-Italic, Lato" font-size="21" font-style="italic" font-weight="normal">
                    <tspan x="796.98993" y="528.91467">Bughotu*</tspan>
                </text>
                <text id="text1" fill="#000000" fill-rule="nonzero" font-family="Lato-Italic, Lato" font-size="21" font-style="italic" font-weight="normal">
                    <tspan x="398.30648" y="21.06281">formerly Laghu,</tspan>
                    <tspan x="412.11923" y="46.06281">now Zabana</tspan>
                </text>
                <text id="text" fill="#000000" fill-rule="nonzero" font-family="Lato-Italic, Lato" font-size="21" font-style="italic" font-weight="normal">
                    <tspan x="0.62061" y="532.408">*Bughotu is a Southeast Solomonic language</tspan>
                </text>
            </g>
            <text id="title" font-family="Lato-Black, Lato" font-size="36" font-weight="800" fill="#000000">
                <tspan x="598.547" y="73">Santa Isabel languages</tspan>
            </text>
        </g>
    </g>
</svg>