<?xml version="1.0" encoding="UTF-8"?>
<svg width="850px" height="720px" viewBox="0 0 850 720" version="1.1" xmlns="http://www.w3.org/2000/svg" xmlns:xlink="http://www.w3.org/1999/xlink">
    <title>temotu-boev0709_en</title>
    <g id="en" stroke="none" stroke-width="1" fill="none" fill-rule="evenodd">
        <g id="temotu-boev0709_en">
            <rect id="background" fill="#FFFFFF" x="0" y="0" width="850" height="720"></rect>
            <g id="map" transform="translate(84.212620, 13.623688)">
                <path d="M79.08416,372.678342 C78.55655,371.937382 78.57142,371.066092 79.16866,367.728072 C79.70045,364.755952 79.76834,363.305442 79.42871,362.171842 C79.24657,361.563942 78.8839,361.182302 77.47364,360.114522 C75.75942,358.816612 75.73125,358.781532 74.645,356.592442 L73.54781,354.381342 L72.49748,354.025292 C71.9198,353.829462 71.42805,353.690772 71.40472,353.717082 C71.38142,353.743382 70.86169,354.593382 70.24984,355.605952 C67.78123,359.691392 65.78195,361.852772 63.32293,363.094462 C61.86534,363.830492 55.25019,366.103112 54.53543,366.113402 C54.31093,366.116402 53.82483,366.019502 53.4552,365.897472 C52.53724,365.594522 52.19474,364.800112 51.62041,361.641812 C50.91716,357.774472 49.94056,356.164212 46.76605,353.637762 C45.22684,352.412782 44.27306,351.103542 43.64181,349.349172 C43.15784,348.004112 43.13845,347.785752 43.1302867,343.590742 C43.12147,338.787432 43.44441,335.398232 43.96855,334.798962 C44.14257,334.600012 45.54945,333.473002 47.09495,332.294502 C51.64779,328.822802 52.00438,328.476022 53.03879,326.514152 C53.5429,325.558042 54.05777,324.690782 54.18294,324.586902 C54.33981,324.456712 54.58781,324.564702 54.98119,324.934522 C55.46958,325.393662 55.71529,326.054402 56.68537,329.517352 C58.18522,334.871422 59.11718,336.830452 60.71506,337.987952 C61.35719,338.453102 61.68673,338.552102 62.59301,338.552102 C64.47226,338.552102 65.92365,337.868442 66.52615,336.699452 C67.38532,335.032462 67.74673,332.911142 68.02645,327.893442 C68.53867,318.705082 69.68278,316.019982 75.00126,311.524342 C78.69472,308.402312 83.94242,304.635672 86.85629,303.015132 C88.79581,301.936492 89.88459,301.823832 93.57274,302.320222 C95.24284,302.544992 97.30693,302.729702 98.15963,302.730672 C99.65422,302.732672 100.24627,302.634772 104.26413,301.724142 C106.69937,301.172212 108.10471,301.285272 111.30731,302.290782 C114.20558,303.200742 116.16642,303.513032 117.53901,303.283292 C118.93448,303.049712 119.28619,302.883312 121.58042,301.371242 C124.21143,299.637202 124.62179,299.563342 127.62321,300.283622 C129.53754,300.743022 130.10626,300.802812 131.64162,300.706122 C134.3523,300.535422 142.10786,298.623602 145.22271,297.358262 C146.28622,296.926232 146.40013,296.915792 147.05666,297.190102 C148.00496,297.586332 148.27912,297.855582 149.90468,299.987122 C150.67689,300.999702 151.53629,302.038572 151.81446,302.295742 C152.31034,302.754172 152.34641,302.758372 153.66013,302.510492 C155.14249,302.230792 156.69888,302.353162 157.60254,302.820462 C158.07322,303.063862 158.39693,303.077632 159.52677,302.902362 C160.27386,302.786442 161.16675,302.573932 161.51098,302.430102 C162.04693,302.206172 162.19072,302.209952 162.51181,302.456402 C162.71804,302.614722 163.41797,302.997712 164.06722,303.307492 L165.24767,303.870742 L166.46454,303.558992 C167.92365,303.185192 168.84062,303.313492 169.66088,304.006212 C170.72299,304.903182 172.07453,305.409392 173.41282,305.411462 C174.89979,305.413462 175.16723,305.285802 176.64613,303.864502 C178.37662,302.201412 178.71806,302.207422 180.57046,303.933502 C181.19338,304.513962 181.20029,304.540042 181.20029,306.313882 C181.20029,308.461052 181.49324,310.051392 181.96423,310.461112 C182.28572,310.740782 182.14696,310.882932 179.90087,312.575042 C177.74043,314.202622 177.43231,314.510532 176.90409,315.569712 C176.07524,317.231682 175.32941,317.939472 173.52025,318.780942 C171.63177,319.659292 170.68844,320.552702 169.72973,322.370872 C169.0132,323.729752 167.7589,325.097772 166.08437,326.346772 C162.74266,328.839262 161.52897,330.134362 160.843,331.939672 L160.48826,332.873282 L161.4254,333.796332 C162.36214,334.718992 162.36285,334.719272 163.10914,334.477772 C164.18985,334.128042 165.00771,333.684852 166.81979,332.467012 C168.56032,331.297262 171.90256,328.637732 172.6559,327.823042 C173.34625,327.076462 174.31178,326.952502 174.93313,327.530682 C175.37785,327.944512 175.41752,328.098232 175.33111,329.073202 C175.03733,332.387862 171.96599,334.605412 164.24332,337.078732 C162.43135,337.659052 159.11748,338.717312 156.87916,339.430422 C151.39194,341.178612 148.63747,342.489332 146.70498,344.271832 C145.69487,345.203542 144.92049,345.275252 143.50801,344.567882 C141.87817,343.751642 140.35885,343.404172 137.88736,343.282422 C136.71491,343.224622 135.3414,343.087282 134.83511,342.977142 C133.69834,342.729842 133.67793,342.549582 134.53027,340.284862 C135.0371,338.938182 135.14845,338.357762 135.1601,337.001732 C135.1736,335.428912 135.1447,335.313392 134.51962,334.445182 C133.7788,333.416132 133.68189,333.362082 132.2993,333.206582 L131.29837,333.094002 L130.77608,333.937062 C130.48881,334.400742 130.02482,335.519802 129.74499,336.423852 C128.72939,339.704922 128.27293,340.809202 127.56373,341.700782 C126.92506,342.503692 126.77358,342.596832 126.25973,342.502552 C125.24854,342.317022 123.37269,341.354272 120.80323,339.702102 C116.72587,337.080342 114.61842,336.226552 112.22439,336.226552 C111.39425,336.226552 111.24706,336.304952 110.36135,337.219242 C109.3054,338.309242 107.85554,339.327252 107.35911,339.327252 C106.90072,339.327252 105.85705,340.959862 104.26196,344.172102 C101.53127,349.671232 99.75479,351.738262 96.28182,353.457422 C94.05004,354.562182 92.90256,355.420382 92.25392,356.469912 C91.85519,357.115062 91.8527,357.163852 92.16382,358.234002 C92.55092,359.565582 92.59404,361.361772 92.25832,362.172182 C91.99177,362.815682 91.33382,363.289802 87.79164,365.390902 C86.56589,366.117972 84.99561,367.127742 84.30211,367.634832 C83.07195,368.534342 83.03252,368.590562 82.68438,369.942032 C82.48811,370.703902 82.25015,371.607502 82.15558,371.950032 C81.94792,372.702112 81.11831,373.241172 80.16852,373.241172 C79.63513,373.241172 79.39682,373.117482 79.08411,372.678322 L79.08416,372.678342 Z" id="path3958" stroke="#F2F2F2" stroke-width="2" fill="#F2F2F2" fill-rule="nonzero" stroke-linecap="square" stroke-linejoin="round"></path>
                <g id="g779" transform="translate(42.333556, 296.311694)" stroke="#000000" stroke-width="1.00000003">
                    <path d="M11.9365825,27.396931 L13.4232139,28.2459968 C15.1795846,31.8016513 15.5474109,40.0869393 19.6885223,41.7329621 C20.7582839,41.8586361 22.6525895,41.4019184 23.4066335,40.5651135 C26.5515486,35.0783708 23.2962856,25.9378866 28.2925932,18.58136 C30.2144858,15.7521625 43.3612118,5.66452545 46.4540181,5.20167732 C50.1169553,4.64993783 53.4641749,6.21933016 57.0750034,5.83924296 C59.9532444,5.53578624 62.6199853,4.11658965 65.5717915,4.45989423 C68.8301198,4.83998143 72.0669914,7.0469394 75.4479284,6.37259113 C77.8510605,5.89135169 79.5461268,3.44837183 81.924737,2.97326282 C83.9048688,2.57784952 85.9309788,3.74876333 87.8712627,3.92961127 C90.6268949,4.18402448 101.082358,1.36402263 103.801208,0 C106.737688,0.076630485 108.138493,4.06141571 110.173799,5.84230818 C111.942431,5.28137303 114.290389,5.09132942 115.908825,6.16109099 C117.205412,6.10285183 118.676718,5.80859076 119.838436,5.20474254 C120.776393,5.92200388 121.910524,6.51665644 123.026264,6.90287409 C124.120547,6.35419982 126.128266,6.29289543 127.274658,6.69137395 C128.387333,8.17800536 130.707704,9.0056146 132.479401,8.3895055 C133.392836,7.62320065 134.254163,6.74961312 135.029663,5.83924296 L136.727795,5.62774282 C137.717861,6.24998236 138.680339,7.01628721 139.489557,7.85922254 C139.489557,9.79031076 139.278057,11.8378773 139.915623,13.6984655 L141.190754,14.4433138 C139.290318,15.5621189 137.389882,17.2694461 135.563011,18.5844252 C133.549162,23.8688635 131.599683,21.9040578 129.083138,24.5309509 C128.240202,25.413734 127.961267,26.642887 127.277723,27.6114964 C124.911374,30.974042 120.059132,32.1143037 118.888218,36.4270673 L120.163349,37.7021986 C122.213981,37.4876333 129.196551,32.1817385 130.358269,30.4805417 L132.270966,30.0544762 L133.546097,31.3296075 C135.489446,42.1651581 109.851951,41.7636143 104.233404,49.0649669 L102.216489,49.4879672 C97.0117469,46.3093347 94.9059412,48.40901 91.0652213,46.9377047 C90.4828296,44.3935726 93.0238965,42.7291584 92.1257872,39.0815474 L91.0652213,37.6991334 L89.3670897,37.3803506 C86.9149142,40.5130048 88.2237629,43.700833 84.6956954,46.9377047 C79.2150831,46.3951608 75.316124,39.915287 69.2960331,40.5651135 C68.0178366,41.6869838 66.8315967,43.3820502 65.047639,43.645659 C62.4667243,46.7108784 62.0406588,51.3209684 57.2956992,55.8574931 C55.3247631,57.7426031 51.3767605,58.1564077 50.1782597,60.954953 C50.8434123,62.5764541 51.1959126,65.258521 50.1782597,66.7972612 C48.6425848,68.2287186 44.3482124,70.0433285 41.2584713,72.6395693 L40.1948401,76.5691806 L38.8154914,77.5255291 L36.798577,77.5255291 L35.7349459,76.0388977 C35.3548587,73.0012652 37.6905559,68.0846533 36.2652289,65.4179124 C31.9708565,62.1902364 33.1141833,63.4469764 30.8489862,58.6192558 L29.3623548,58.0889728 C24.0871122,67.4072398 22.2418501,67.3949789 12.2614957,70.5153723 L10.2445814,69.9850893 C8.66905859,68.737545 8.90201527,64.4707596 8.01310164,62.4446496 C4.80994737,55.1218405 -2.38412256,60.1702568 0.791444737,38.336699 C1.1807276,37.7297856 7.66366663,33.1626087 8.9694501,31.8568252 C10.2292553,30.5908896 10.3212119,28.5341274 11.9365825,27.396931 L11.9365825,27.396931 Z" id="path781"></path>
                    <path d="M11.9365825,27.396931 L13.4232139,28.2459968 C15.1795846,31.8016513 15.5474109,40.0869393 19.6885223,41.7329621 C20.7582839,41.8586361 22.6525895,41.4019184 23.4066335,40.5651135 C26.5515486,35.0783708 23.2962856,25.9378866 28.2925932,18.58136 C30.2144858,15.7521625 43.3612118,5.66452545 46.4540181,5.20167732 C50.1169553,4.64993783 53.4641749,6.21933016 57.0750034,5.83924296 C59.9532444,5.53578624 62.6199853,4.11658965 65.5717915,4.45989423 C68.8301198,4.83998143 72.0669914,7.0469394 75.4479284,6.37259113 C77.8510605,5.89135169 79.5461268,3.44837183 81.924737,2.97326282 C83.9048688,2.57784952 85.9309788,3.74876333 87.8712627,3.92961127 C90.6268949,4.18402448 101.082358,1.36402263 103.801208,0 C106.737688,0.076630485 108.138493,4.06141571 110.173799,5.84230818 C111.942431,5.28137303 114.290389,5.09132942 115.908825,6.16109099 C117.205412,6.10285183 118.676718,5.80859076 119.838436,5.20474254 C120.776393,5.92200388 121.910524,6.51665644 123.026264,6.90287409 C124.120547,6.35419982 126.128266,6.29289543 127.274658,6.69137395 C128.387333,8.17800536 130.707704,9.0056146 132.479401,8.3895055 C133.392836,7.62320065 134.254163,6.74961312 135.029663,5.83924296 L136.727795,5.62774282 C137.717861,6.24998236 138.680339,7.01628721 139.489557,7.85922254 C139.489557,9.79031076 139.278057,11.8378773 139.915623,13.6984655 L141.190754,14.4433138 C139.290318,15.5621189 137.389882,17.2694461 135.563011,18.5844252 C133.549162,23.8688635 131.599683,21.9040578 129.083138,24.5309509 C128.240202,25.413734 127.961267,26.642887 127.277723,27.6114964 C124.911374,30.974042 120.059132,32.1143037 118.888218,36.4270673 L120.163349,37.7021986 C122.213981,37.4876333 129.196551,32.1817385 130.358269,30.4805417 L132.270966,30.0544762 L133.546097,31.3296075 C135.489446,42.1651581 109.851951,41.7636143 104.233404,49.0649669 L102.216489,49.4879672 C97.0117469,46.3093347 94.9059412,48.40901 91.0652213,46.9377047 C90.4828296,44.3935726 93.0238965,42.7291584 92.1257872,39.0815474 L91.0652213,37.6991334 L89.3670897,37.3803506 C86.9149142,40.5130048 88.2237629,43.700833 84.6956954,46.9377047 C79.2150831,46.3951608 75.316124,39.915287 69.2960331,40.5651135 C68.0178366,41.6869838 66.8315967,43.3820502 65.047639,43.645659 C62.4667243,46.7108784 62.0406588,51.3209684 57.2956992,55.8574931 C55.3247631,57.7426031 51.3767605,58.1564077 50.1782597,60.954953 C50.8434123,62.5764541 51.1959126,65.258521 50.1782597,66.7972612 C48.6425848,68.2287186 44.3482124,70.0433285 41.2584713,72.6395693 L40.1948401,76.5691806 L38.8154914,77.5255291 L36.798577,77.5255291 L35.7349459,76.0388977 C35.3548587,73.0012652 37.6905559,68.0846533 36.2652289,65.4179124 C31.9708565,62.1902364 33.1141833,63.4469764 30.8489862,58.6192558 L29.3623548,58.0889728 C24.0871122,67.4072398 22.2418501,67.3949789 12.2614957,70.5153723 L10.2445814,69.9850893 C8.66905859,68.737545 8.90201527,64.4707596 8.01310164,62.4446496 C4.80994737,55.1218405 -2.38412256,60.1702568 0.791444737,38.336699 C1.1807276,37.7297856 7.66366663,33.1626087 8.9694501,31.8568252 C10.2292553,30.5908896 10.3212119,28.5341274 11.9365825,27.396931 L11.9365825,27.396931 Z" id="path783" stroke-linejoin="round"></path>
                </g>
                <path d="M310.21465,551.244572 L310.12015,550.161632 L309.44778,549.872382 C309.07797,549.713292 307.72376,549.405212 306.43841,549.187752 C305.13345,548.966972 303.9502,548.693292 303.75901,548.568022 C302.93386,548.027362 302.18844,546.428092 302.00338,544.801402 C301.93588,544.207842 301.95318,544.176052 302.84954,543.246952 C303.79154,542.270552 306.35094,540.243922 307.65244,539.443832 L308.38849,538.991352 L309.43387,539.153692 C310.00882,539.242992 310.85774,539.493052 311.32034,539.709412 L312.16143,540.102802 L312.84733,539.397762 C313.46356,538.764352 313.54874,538.600542 313.68586,537.785252 C313.76976,537.286142 313.84396,536.365602 313.85066,535.739622 C313.86186,534.691642 313.89506,534.561352 314.26975,534.095132 C315.10069,533.061142 315.42462,530.972602 315.02243,529.242262 L314.8643,528.561912 L313.76804,528.252912 C313.16509,528.082972 312.48678,527.942112 312.26067,527.939892 C311.57471,527.932892 310.23319,528.672212 309.22921,529.609912 C306.14356,532.491882 304.62603,533.270522 302.08111,533.277552 L301.21978,533.279552 L300.93095,532.628642 C300.56784,531.810352 300.43905,529.866012 300.67556,528.773152 C300.76716,528.350002 301.01656,527.387132 301.22984,526.633452 C301.67909,525.045902 301.88838,524.031652 301.96393,523.075852 C302.03043,522.234412 302.02823,522.235192 304.88962,522.042112 C306.03594,521.964712 307.08424,521.860122 307.21918,521.809602 C307.35412,521.759102 307.95784,521.216242 308.56078,520.603312 C309.16373,519.990382 309.94983,519.254562 310.30767,518.968162 L310.9583,518.447442 L311.81504,518.995522 C313.80502,520.268582 313.90187,520.306622 314.8946,520.204912 C315.39172,520.154012 316.51325,519.989492 317.38688,519.839392 C319.42709,519.488842 319.84974,519.557152 320.82523,520.395102 C321.23976,520.751182 321.88811,521.262932 322.26601,521.532312 L322.9531,522.022112 L325.02697,522.066712 C326.82735,522.105412 327.1384,522.145412 327.38565,522.369482 C327.5423,522.511462 328.13444,523.533362 328.70151,524.640362 C329.37511,525.955332 329.94665,526.876542 330.35013,527.297632 L330.9677,527.942172 L330.70536,528.456402 C330.45574,528.945692 330.38423,528.984902 329.23124,529.264572 C328.56476,529.426242 327.66999,529.633602 327.24285,529.725372 L326.46623,529.892242 L326.11167,530.866462 C325.91665,531.402282 325.75739,531.905662 325.75776,531.985082 C325.75858,532.160512 326.50355,532.865762 327.03916,533.198132 C327.25368,533.331242 328.30198,533.774052 329.36872,534.182152 C331.70726,535.076792 332.30725,535.465082 332.65768,536.310622 L332.91618,536.934362 L332.59183,537.429992 C332.3372,537.819092 332.14967,537.944752 331.71935,538.014642 C331.41788,538.063642 329.9597,538.401912 328.47895,538.766432 C326.99821,539.130952 325.40893,539.471932 324.94722,539.524172 C324.16328,539.612872 324.05533,539.670072 323.31514,540.389032 C322.8792,540.812472 322.28404,541.554682 321.99256,542.038392 L321.46259,542.917862 L322.36624,543.773982 C322.86324,544.244842 323.7373,544.945512 324.3086,545.331012 C324.87989,545.716522 325.34732,546.056752 325.34732,546.087082 C325.34732,546.205122 322.9557,547.578082 321.18521,548.476432 C317.20889,550.494032 312.21506,552.322002 310.66823,552.326161 C310.31888,552.327102 310.30651,552.297542 310.21462,551.244162 L310.21462,551.244162 L310.21465,551.244572 Z" id="path3956" stroke="#F2F2F2" stroke-width="2" fill="#F2F2F2" fill-rule="nonzero" stroke-linecap="square" stroke-linejoin="round"></path>
                <g id="g785" transform="translate(299.898782, 517.743144)" stroke="#000000" stroke-width="1.00000003">
                    <path d="M7.24276179,3.50661099 C8.34930599,2.18856665 9.65815467,0.993131086 11.0681556,-3.48475101e-13 C12.0459606,0.698870023 13.0820047,1.35176176 14.1487011,1.91269691 C16.3280721,2.03224046 18.3878995,0.882783187 20.5212922,1.48663141 C21.3335754,2.32956674 22.292989,3.09587159 23.2830549,3.71811113 C24.6961211,3.68439372 26.1214481,3.72424157 27.531449,3.82539381 C29.2326458,5.13730771 29.3092762,8.26689672 31.7798431,9.98341959 L31.03806,11.6815511 C29.71082,12.0647036 28.3590582,12.3865516 27.001166,12.6378996 L26.4708831,14.124531 C27.7368187,15.8165321 31.0257991,15.8318582 32.9476917,17.5238593 L33.69254,19.2250561 L32.7361915,20.7116875 C29.9468419,21.0212746 27.5375794,22.1983189 24.5581862,22.4128843 C23.647816,23.0504499 22.8048807,24.0650375 22.3267065,25.0673643 C23.4363159,26.4436478 25.0547517,27.2375396 26.4678179,28.2551924 C24.7267732,30.1862807 12.2543955,36.0469801 9.90030701,35.0507838 L9.68880687,32.8223693 C7.81595781,31.8660209 5.61206507,32.1449558 3.63499855,31.4399554 C2.11158451,30.4621504 1.44336668,28.0528879 1.51080151,26.3424955 C1.89701915,25.0673643 6.84428326,21.432014 8.20217546,20.7147527 C9.35776317,20.6565135 11.1478513,21.0182094 12.1287215,21.6711012 L13.08507,20.7147527 C13.3823962,19.3875127 13.5080702,17.9284683 13.4038528,16.5705761 C14.8475711,15.4854884 15.0069625,12.8432693 14.4674839,11.2616161 L12.4475043,10.7313331 C9.05124123,11.1512682 8.00600142,16.7820762 0.977453333,16.0402931 C-1.61572228,11.8501382 1.80506257,8.33433155 1.50773629,4.35567677 C2.51619347,3.48821968 5.70708687,3.8866982 7.24276179,3.50661099 L7.24276179,3.50661099 Z" id="path787"></path>
                    <path d="M7.24276179,3.50661099 C8.34930599,2.18856665 9.65815467,0.993131086 11.0681556,-3.48475101e-13 C12.0459606,0.698870023 13.0820047,1.35176176 14.1487011,1.91269691 C16.3280721,2.03224046 18.3878995,0.882783187 20.5212922,1.48663141 C21.3335754,2.32956674 22.292989,3.09587159 23.2830549,3.71811113 C24.6961211,3.68439372 26.1214481,3.72424157 27.531449,3.82539381 C29.2326458,5.13730771 29.3092762,8.26689672 31.7798431,9.98341959 L31.03806,11.6815511 C29.71082,12.0647036 28.3590582,12.3865516 27.001166,12.6378996 L26.4708831,14.124531 C27.7368187,15.8165321 31.0257991,15.8318582 32.9476917,17.5238593 L33.69254,19.2250561 L32.7361915,20.7116875 C29.9468419,21.0212746 27.5375794,22.1983189 24.5581862,22.4128843 C23.647816,23.0504499 22.8048807,24.0650375 22.3267065,25.0673643 C23.4363159,26.4436478 25.0547517,27.2375396 26.4678179,28.2551924 C24.7267732,30.1862807 12.2543955,36.0469801 9.90030701,35.0507838 L9.68880687,32.8223693 C7.81595781,31.8660209 5.61206507,32.1449558 3.63499855,31.4399554 C2.11158451,30.4621504 1.44336668,28.0528879 1.51080151,26.3424955 C1.89701915,25.0673643 6.84428326,21.432014 8.20217546,20.7147527 C9.35776317,20.6565135 11.1478513,21.0182094 12.1287215,21.6711012 L13.08507,20.7147527 C13.3823962,19.3875127 13.5080702,17.9284683 13.4038528,16.5705761 C14.8475711,15.4854884 15.0069625,12.8432693 14.4674839,11.2616161 L12.4475043,10.7313331 C9.05124123,11.1512682 8.00600142,16.7820762 0.977453333,16.0402931 C-1.61572228,11.8501382 1.80506257,8.33433155 1.50773629,4.35567677 C2.51619347,3.48821968 5.70708687,3.8866982 7.24276179,3.50661099 L7.24276179,3.50661099 Z" id="path789" stroke-linejoin="round"></path>
                </g>
                <path d="M428.46463,671.463572 C427.06521,671.110802 425.05336,670.507732 424.52577,670.282852 C423.62296,669.898042 423.54124,669.542432 423.65096,666.475942 L423.73676,664.077872 L422.94894,663.558862 C422.51564,663.273412 422.02741,662.945502 421.864,662.830172 C421.57993,662.629682 421.55159,662.646442 421.21826,663.212142 C421.02652,663.537552 420.18801,664.482112 419.35491,665.311162 L417.84018,666.818522 L416.64242,666.865122 C414.69803,666.940822 413.16341,666.425962 411.731,665.217272 C410.1903,663.917202 409.27695,662.502712 407.0888,658.027952 C406.16194,656.132522 405.15853,654.220832 404.85899,653.779752 C404.10777,652.673532 403.24574,651.917182 402.0624,651.326002 C400.00589,650.298612 399.81942,649.965542 400.23338,648.059132 C400.366,647.448392 400.52149,646.578712 400.57893,646.126502 C400.67503,645.369642 400.65053,645.243722 400.27069,644.541842 L399.85802,643.779382 L398.19699,643.117492 C396.17607,642.312182 394.97086,641.714662 394.08509,641.078902 C393.49503,640.655382 393.36339,640.463072 392.97489,639.457012 C392.73247,638.829252 392.4898,638.213572 392.43562,638.088832 C392.35992,637.914492 392.43062,637.841402 392.74332,637.772812 C393.06791,637.701512 393.59909,637.113852 395.38715,634.847852 C396.61784,633.288192 398.30476,631.324312 399.13586,630.483672 C400.46604,629.138212 400.73605,628.929042 401.39124,628.736502 C402.32696,628.461512 402.934,628.462042 404.48387,628.739502 C405.45363,628.912902 406.22959,628.942562 408.11524,628.878282 C409.43418,628.833282 410.91414,628.736982 411.40403,628.664172 C414.82636,628.155572 418.64468,627.808882 420.80087,627.810972 C424.81629,627.814982 425.76119,628.045592 428.36937,629.658942 C430.22688,630.807952 430.61482,630.970262 432.87219,631.542832 C435.40203,632.184512 436.2636,632.568072 437.02116,633.389932 C437.99621,634.447742 438.53655,636.218242 438.53655,638.355342 C438.53655,639.969002 438.20039,641.231232 437.10993,643.712072 C435.54826,647.264932 435.24776,648.292952 435.24776,650.082542 L435.24776,650.930902 L436.10422,651.767692 L436.96067,652.604482 L439.29023,652.281542 C441.85741,651.925672 443.44027,651.870352 444.36842,652.104072 C445.11059,652.290952 445.54514,652.830132 446.29445,654.493862 L446.81214,655.643312 L448.01958,656.126582 C448.68367,656.392382 449.25653,656.609852 449.29261,656.609852 C449.32871,656.609852 449.53851,656.255282 449.75887,655.821912 C450.45337,654.456132 451.51306,653.694242 453.09189,653.425542 C453.5678,653.344542 454.28979,653.322802 454.70644,653.376942 C455.38329,653.464842 455.50433,653.533332 455.89375,654.048862 C457.3123,655.926752 460.46182,661.590432 460.46182,662.263472 C460.46182,662.707512 460.24416,662.940752 459.36556,663.438162 C458.95103,663.672852 457.783,664.509992 456.76992,665.298482 C454.39108,667.149962 453.83074,667.435702 452.58046,667.434832 C451.78188,667.434282 451.29383,667.318472 449.63622,666.736222 C447.9451,666.142212 447.45436,666.027552 446.34043,665.966202 L445.03162,665.894102 L444.28494,667.376502 C443.87113,668.198042 443.38553,668.965352 443.19567,669.097692 C442.77062,669.393982 441.20296,669.714632 435.52183,670.667322 C431.3287,671.370482 429.09449,671.622662 428.46463,671.463882 L428.46463,671.463882 L428.46463,671.463572 Z" id="path3954" stroke="#F2F2F2" stroke-width="2" fill="#F2F2F2" fill-rule="nonzero" stroke-linecap="square" stroke-linejoin="round"></path>
                <g id="g791" transform="translate(391.468795, 627.173891)" stroke="#000000" stroke-width="1.00000003">
                    <path d="M-6.96950201e-13,10.4745047 L1.38241395,9.94422175 C2.97939326,8.03765529 7.20633081,2.11258619 9.13435381,1.23593344 C11.5344206,0.144715331 12.8708563,1.23593344 15.0808794,1.23593344 C21.1898617,1.23593344 27.0352351,-0.707415662 33.4568698,0.279584984 C36.1052193,0.687259165 37.6776769,2.79919533 40.1482437,3.46741316 C43.5107894,4.3747181 46.3675739,4.30421806 47.3699006,8.56487302 C48.9760756,15.3972471 43.8510287,18.0977054 44.3966378,23.5384698 L45.6717691,24.8136011 C47.9155097,24.6511444 52.2221429,23.4250567 54.0612746,24.8136011 C54.7785359,25.7515582 55.3731885,26.8856894 55.7624713,27.998364 L57.5678856,28.7432123 C58.6100601,25.9477322 61.5649316,25.1354491 64.2592595,25.7699495 C65.3320863,26.6374066 69.4793281,33.6812808 69.6785674,35.2230861 L69.1482844,36.2836521 C66.7604785,37.1143265 64.0263028,40.5596331 61.9266275,40.850829 C58.9227125,41.2676988 56.6421893,38.8216537 53.8559049,39.3641976 C53.494209,40.4921983 52.8351868,41.6631121 52.0504906,42.5520257 C51.5447294,42.8891999 38.6769384,45.0655056 37.7144595,44.9950056 C36.7182632,44.9214403 32.8775433,43.8118309 31.979434,43.296874 C31.0935856,41.4822642 31.7618034,39.2017409 31.6606512,37.2430657 L30.2813025,36.2867173 C29.4812802,37.8653053 27.8628443,38.7572841 26.7746915,40.1121111 C17.1529678,41.9635036 16.0678801,30.5608874 12.224095,25.9875801 C11.1052899,24.6542097 9.19872342,24.5316009 8.19026624,23.2258174 C7.60787455,21.4510554 8.64085349,19.9674892 8.61633173,18.2356402 L7.9787661,17.0677916 C6.1151127,16.3229433 2.68513219,15.1367034 1.39467483,13.6684633 C1.07895723,12.5680496 0.622239538,11.4247227 -6.96950201e-13,10.4745047 L-6.96950201e-13,10.4745047 Z" id="path793"></path>
                    <path d="M-6.96950201e-13,10.4745047 L1.38241395,9.94422175 C2.97939326,8.03765529 7.20633081,2.11258619 9.13435381,1.23593344 C11.5344206,0.144715331 12.8708563,1.23593344 15.0808794,1.23593344 C21.1898617,1.23593344 27.0352351,-0.707415662 33.4568698,0.279584984 C36.1052193,0.687259165 37.6776769,2.79919533 40.1482437,3.46741316 C43.5107894,4.3747181 46.3675739,4.30421806 47.3699006,8.56487302 C48.9760756,15.3972471 43.8510287,18.0977054 44.3966378,23.5384698 L45.6717691,24.8136011 C47.9155097,24.6511444 52.2221429,23.4250567 54.0612746,24.8136011 C54.7785359,25.7515582 55.3731885,26.8856894 55.7624713,27.998364 L57.5678856,28.7432123 C58.6100601,25.9477322 61.5649316,25.1354491 64.2592595,25.7699495 C65.3320863,26.6374066 69.4793281,33.6812808 69.6785674,35.2230861 L69.1482844,36.2836521 C66.7604785,37.1143265 64.0263028,40.5596331 61.9266275,40.850829 C58.9227125,41.2676988 56.6421893,38.8216537 53.8559049,39.3641976 C53.494209,40.4921983 52.8351868,41.6631121 52.0504906,42.5520257 C51.5447294,42.8891999 38.6769384,45.0655056 37.7144595,44.9950056 C36.7182632,44.9214403 32.8775433,43.8118309 31.979434,43.296874 C31.0935856,41.4822642 31.7618034,39.2017409 31.6606512,37.2430657 L30.2813025,36.2867173 C29.4812802,37.8653053 27.8628443,38.7572841 26.7746915,40.1121111 C17.1529678,41.9635036 16.0678801,30.5608874 12.224095,25.9875801 C11.1052899,24.6542097 9.19872342,24.5316009 8.19026624,23.2258174 C7.60787455,21.4510554 8.64085349,19.9674892 8.61633173,18.2356402 L7.9787661,17.0677916 C6.1151127,16.3229433 2.68513219,15.1367034 1.39467483,13.6684633 C1.07895723,12.5680496 0.622239538,11.4247227 -6.96950201e-13,10.4745047 L-6.96950201e-13,10.4745047 Z" id="path795" stroke-linejoin="round"></path>
                </g>
                <path d="M17.30929,104.079482 L17.30929,103.867982 C8.18414,106.470352 -2.84217094e-14,100.808892 -2.84217094e-14,91.4415816" id="path859" stroke="#000000" stroke-dasharray="2,1"></path>
                <path d="M29.41998,94.0960616 C27.15478,91.8186016 27.21915,86.0161416 19.11777,81.1393716 L18.79899,81.1393716" id="path861" stroke="#000000" stroke-dasharray="2,1"></path>
                <path d="M117.78106,94.0960616 C115.42391,93.4768816 112.23608,92.7964016 109.92184,93.7772716 C105.90027,95.4846016 102.25266,103.904762 103.44196,108.009092" id="path863" stroke="#000000" stroke-dasharray="2,1"></path>
                <path d="M202.10831,175.873042 L201.36346,175.768832 C198.06529,175.296782 197.0599,172.642302 194.24909,171.413152 C188.41598,168.862892 179.14369,171.664502 172.68834,168.332602 C166.92879,165.359342 166.39544,160.936232 162.70492,156.543772 C157.59826,150.465442 152.00424,148.019402 145.28528,144.436152 C142.65532,143.032282 140.48208,140.178562 141.35566,137.107212 L142.52351,135.832082 C148.36276,135.114822 153.8403,135.114822 159.62131,134.664232" id="path865" stroke="#000000" stroke-dasharray="2,1"></path>
                <path d="M212.40745,144.224652 C209.78975,143.121172 207.82495,140.917282 205.07851,139.976262 C198.52201,137.729452 192.35785,141.778612 186.49408,141.144112 C183.999,140.874372 178.79119,136.987672 177.5743,136.895712" id="path867" stroke="#000000" stroke-dasharray="2,1"></path>
                <path d="M184.26567,317.335982 C184.82354,315.867742 186.14771,315.040132 186.70558,313.406372 C189.80146,304.379302 184.52008,299.468822 178.10458,294.395882 C175.49608,294.349882 172.15192,294.316182 169.60779,293.969822 C168.07212,293.764452 167.45907,293.022662 166.21153,292.375902 C160.60831,289.485402 148.31065,286.570382 142.10358,286.852382 C138.72571,287.005642 128.80972,287.186482 126.17363,288.339012 C122.85093,289.791922 119.79185,291.925312 116.29443,293.224972 C111.36555,295.054902 97.84181,293.801232 92.50526,292.694682" id="path869" stroke="#000000" stroke-dasharray="2,1"></path>
                <path d="M49.49104,370.437842 C47.53849,370.106802 44.15142,367.691412 43.11845,366.085232 C42.39812,364.963362 42.36134,363.675972 41.9506,362.474402 C39.77123,356.111012 36.32592,349.018092 34.62165,342.722132 C34.04846,340.601002 34.56645,336.456822 36.21557,334.862912 L36.21557,334.118062" id="path871" stroke="#000000" stroke-dasharray="2,1"></path>
                <path d="M162.17463,360.561712 C158.26648,365.150342 153.22419,368.114412 147.30525,366.085232 C144.8776,365.254562 142.11584,365.033862 139.8721,363.642252 C130.81744,358.023702 124.95674,343.093022 112.04603,344.631762 L112.04603,347.074742 C109.15553,350.516982 105.31788,353.827422 103.12625,357.803012 C101.89096,360.040622 100.67407,364.151082 98.87785,365.873732 C97.32072,367.366492 95.20572,366.627772 93.46161,367.786432 C92.64013,368.862322 91.05235,372.090002 90.80713,373.414172" id="path873" stroke="#000000" stroke-dasharray="2,1"></path>
                <path d="M328.38309,558.633122 C322.97604,564.337492 321.5078,562.243942 314.68462,562.243942 C313.13056,562.243942 311.63473,562.673072 310.01016,562.562732 C307.68979,560.355772 303.82149,559.371832 301.19766,557.253772 C287.48693,546.179132 291.3675,547.346982 283.45923,533.357322 C283.67073,531.441552 288.31148,520.872682 289.51304,519.018222" id="path875" stroke="#000000" stroke-dasharray="2,1"></path>
                <path d="M340.59492,545.250372 C341.16199,543.460282 342.38195,541.829582 342.6149,539.941412 C343.92069,529.222342 336.06453,512.648692 323.71169,512.648692" id="path877" stroke="#000000" stroke-dasharray="2,1"></path>
                <path d="M471.54722,644.869902 C470.95564,635.861222 467.14557,626.451002 457.63419,623.946722 L457.42269,623.946722" id="path879" stroke="#000000" stroke-dasharray="2,1"></path>
                <path d="M435.12016,619.912892 C432.81205,621.114452 426.59885,617.043842 423.65011,616.406282 C416.3978,614.836892 393.07761,616.268342 387.96482,622.352802 C384.1333,626.913852 384.39691,631.241942 382.76314,636.477332" id="path881" stroke="#000000" stroke-dasharray="2,1"></path>
                <path d="M463.688,675.031712 C457.38898,676.689912 446.27142,677.140512 441.06668,679.917612 C438.66355,681.198912 436.32785,682.657912 433.41896,682.149112 C428.7353,681.327612 424.37043,677.162012 419.39865,676.306812 C415.45371,675.629412 410.58614,676.895312 406.86803,674.608712 C400.65177,670.783312 385.91113,655.549132 387.43454,647.631672" id="path883" stroke="#000000" stroke-dasharray="2,1"></path>
                <path d="M557.89539,43.8507016 C556.40942,43.6009146 554.72632,42.0630176 554.08178,40.3660906 C553.82862,39.6995866 553.73489,38.3828366 553.89354,37.7215316 L554.00727,37.2474306 L554.84089,37.1335116 L555.6745,37.0195926 L556.28089,37.4772016 C556.6144,37.7288866 557.68054,38.4431206 558.65008,39.0643876 L560.41287,40.1939636 L560.67073,40.8873526 L560.92859,41.5807406 L560.76564,42.3655196 C560.58277,43.2462916 560.4772,43.3784356 559.73274,43.6585016 C559.10678,43.8939876 558.5188,43.9554946 557.89539,43.8507016 L557.89539,43.8507016 Z" id="path3940" stroke="#F2F2F2" stroke-width="2" fill="#F2F2F2" fill-rule="nonzero" stroke-linecap="square" stroke-linejoin="round"></path>
                <g id="g893" transform="translate(553.204208, 36.427067)" stroke="#000000" stroke-width="1.00000003">
                    <path d="M7.66087183,3.3962631 L8.29843746,5.09745986 L7.87237197,7.11437423 C3.7067388,10.394159 -1.56543856,4.34035067 0.439214923,0.318782818 L2.67069465,-3.48475101e-13 C3.23469502,0.668217829 6.63708855,2.68513219 7.66087183,3.3962631 L7.66087183,3.3962631 Z" id="path895"></path>
                    <path d="M7.66087183,3.3962631 L8.29843746,5.09745986 L7.87237197,7.11437423 C3.7067388,10.394159 -1.56543856,4.34035067 0.439214923,0.318782818 L2.67069465,-3.48475101e-13 C3.23469502,0.668217829 6.63708855,2.68513219 7.66087183,3.3962631 L7.66087183,3.3962631 Z" id="path897" stroke-linejoin="round"></path>
                </g>
                <path d="M528.7172,14.0688006 C527.40623,13.8797446 526.09614,13.3374526 525.34106,12.6712906 L524.90523,12.2867886 L525.03075,11.4519806 C525.09975,10.9928366 525.15719,10.5909906 525.15832,10.5589896 C525.16232,10.4391376 526.32182,9.98548257 526.98531,9.84404357 C528.94834,9.42557657 531.47022,10.2036756 533.34834,11.8072866 C533.43314,11.8796566 532.9206,12.9711676 532.66648,13.2594776 C532.39911,13.5628256 531.60115,13.9066816 530.85607,14.0396146 C530.05502,14.1825316 529.55332,14.1893776 528.7172,14.0688046 L528.7172,14.0688006 Z" id="path3936" stroke="#F2F2F2" stroke-width="2" fill="#F2F2F2" fill-rule="nonzero" stroke-linecap="square" stroke-linejoin="round"></path>
                <g id="g899" transform="translate(524.330730, 9.174477)" stroke="#000000" stroke-width="1.00000003">
                    <path d="M9.77191945,2.61129117 L8.92285367,4.31248794 C7.01015677,6.43975021 1.56632711,5.55696702 0,3.24885681 L0.318782818,1.01737709 C3.22154559,-0.984211181 7.5527006,0.189767849 9.77191945,2.61129117 Z" id="path901"></path>
                    <path d="M9.77191945,2.61129117 L8.92285367,4.31248794 C7.01015677,6.43975021 1.56632711,5.55696702 0,3.24885681 L0.318782818,1.01737709 C3.22154559,-0.984211181 7.5527006,0.189767849 9.77191945,2.61129117 Z" id="path903" stroke-linejoin="round"></path>
                </g>
                <path d="M519.68612,3.66434257 C519.32439,3.51884357 518.71065,2.86066157 518.71065,2.61823057 C518.71065,2.47777857 520.14696,1.86063057 521.03445,1.61974857 C521.50395,1.49231657 522.42161,1.25941857 523.0737,1.10219657 C523.72578,0.944975568 524.32672,0.789623568 524.40911,0.756970568 C524.51819,0.713740568 524.60528,0.800430568 524.72947,1.07583357 C524.82327,1.28386157 524.87609,1.51646057 524.84683,1.59272057 C524.77703,1.77451157 523.73482,2.63971057 523.0737,3.06465257 C521.93214,3.79838757 520.60394,4.03351557 519.68612,3.66434257 L519.68612,3.66434257 Z" id="path3938" stroke="#F2F2F2" stroke-width="2" fill="#F2F2F2" fill-rule="nonzero" stroke-linecap="square" stroke-linejoin="round"></path>
                <g id="g905" transform="translate(517.850856, 0.000000)" stroke="#000000" stroke-width="1.00000003">
                    <path d="M7.01015677,0 L7.75500508,1.69813155 C6.02928656,3.42078485 3.60776323,5.36719917 1.06363113,3.92961127 L0,2.44297986 C2.60850171,0.689674365 4.2821115,1.05137025 7.01015677,0 L7.01015677,0 Z" id="path907"></path>
                    <path d="M7.01015677,0 L7.75500508,1.69813155 C6.02928656,3.42078485 3.60776323,5.36719917 1.06363113,3.92961127 L0,2.44297986 C2.60850171,0.689674365 4.2821115,1.05137025 7.01015677,0 L7.01015677,0 Z" id="path909" stroke-linejoin="round"></path>
                </g>
                <path d="M48.94208,208.363022 C46.87475,207.340882 45.22314,204.673112 45.19348,202.308062 L45.16878,200.338662 L47.03905,199.876762 C48.268,199.573252 49.30503,198.940852 50.06336,198.032502 C51.41174,196.417362 52.6263,196.242392 52.98068,197.612232 C53.11757,198.141382 53.86923,199.804292 54.65104,201.307582 C55.43284,202.810882 56.0725,204.277622 56.0725,204.567002 C56.0725,205.161112 52.46089,208.622852 51.84105,208.622852 C51.61986,208.622852 51.18262,208.715452 50.86941,208.828612 C50.5562,208.941792 49.6889,208.732312 48.94207,208.363022 L48.94207,208.363022 L48.94208,208.363022 Z" id="path3924" stroke="#F2F2F2" stroke-width="2" fill="#F2F2F2" fill-rule="nonzero" stroke-linecap="square" stroke-linejoin="round"></path>
                <g id="g1103" transform="translate(44.072760, 195.732650)" stroke="#000000" stroke-width="1.00000003">
                    <path d="M12.9591412,8.92285367 C5.43402755,21.585275 -3.01984756,6.17641709 1.0660899,3.82539381 C2.08987318,3.4759588 3.18109129,3.23380647 4.25085286,3.0805455 C5.09991863,2.51961035 5.83250607,1.54180536 6.27083244,0.637565635 L7.96896399,0 L9.4555954,0.849065774 C10.4211395,5.59402541 12.1836407,5.79019945 12.9591412,8.92285367 Z" id="path1105"></path>
                    <path d="M12.9591412,8.92285367 C5.43402755,21.585275 -3.01984756,6.17641709 1.0660899,3.82539381 C2.08987318,3.4759588 3.18109129,3.23380647 4.25085286,3.0805455 C5.09991863,2.51961035 5.83250607,1.54180536 6.27083244,0.637565635 L7.96896399,0 L9.4555954,0.849065774 C10.4211395,5.59402541 12.1836407,5.79019945 12.9591412,8.92285367 Z" id="path1107" stroke-linejoin="round"></path>
                </g>
                <path d="M220.06016,141.102822 C219.90604,140.932522 219.88518,140.794082 219.94532,140.340682 C220.10589,139.130262 220.67697,137.837942 220.93657,138.097542 C221.11987,138.280842 220.55116,141.310922 220.33345,141.310922 C220.28675,141.310922 220.16374,141.217322 220.06016,141.102822 Z" id="path3948" stroke="#F2F2F2" stroke-width="2" fill="#F2F2F2" fill-rule="nonzero" stroke-linecap="square" stroke-linejoin="round"></path>
                <g id="g1109" transform="translate(218.896942, 137.104199)" stroke="#000000" stroke-width="1.00000003">
                    <path d="M1.58471843,5.31202522 L0.416869838,4.03689395 C0.419935058,2.90889321 0.754043972,1.63989238 1.26593561,0.637565635 L2.64834956,3.48475101e-13 C2.64528434,1.90043603 2.56865386,3.6016328 1.58471843,5.31202522 L1.58471843,5.31202522 Z" id="path1111"></path>
                    <path d="M1.58471843,5.31202522 L0.416869838,4.03689395 C0.419935058,2.90889321 0.754043972,1.63989238 1.26593561,0.637565635 L2.64834956,3.48475101e-13 C2.64528434,1.90043603 2.56865386,3.6016328 1.58471843,5.31202522 L1.58471843,5.31202522 Z" id="path1113" stroke-linejoin="round"></path>
                </g>
                <path d="M215.18399,165.280732 C214.85345,165.141682 214.84153,165.115352 214.84195,164.525652 C214.84234,164.018742 214.89716,163.833832 215.16397,163.440432 C216.0326,162.159432 216.85647,159.975812 217.2513,157.908052 C217.37303,157.270512 217.63795,155.410812 217.84001,153.775372 C218.22294,150.675972 218.47575,149.432812 218.90963,148.515662 C219.33085,147.625282 219.35811,147.632112 220.02235,148.794242 L220.61652,149.833792 L220.35873,150.709562 C220.02236,151.852242 219.557,153.794822 219.10128,155.958552 C218.49902,158.818012 218.02268,160.351222 217.11607,162.348362 C216.75839,163.136292 215.7443,165.102372 215.53825,165.407372 C215.53225,165.417372 215.37236,165.359972 215.18399,165.280732 Z" id="path3946" stroke="#F2F2F2" stroke-width="2" fill="#F2F2F2" fill-rule="nonzero" stroke-linecap="square" stroke-linejoin="round"></path>
                <g id="g1115" transform="translate(214.320570, 146.771901)" stroke="#000000" stroke-width="1.00000003">
                    <path d="M6.90287409,2.97326282 C4.67445958,10.0416588 5.71050374,12.1137471 1.48663141,19.3292735 L0,18.7989906 L0,16.8862937 C4.19015492,11.4026162 1.85752296,2.54719732 5.20474254,0 L6.90287409,2.97326282 L6.90287409,2.97326282 Z" id="path1117"></path>
                    <path d="M6.90287409,2.97326282 C4.67445958,10.0416588 5.71050374,12.1137471 1.48663141,19.3292735 L0,18.7989906 L0,16.8862937 C4.19015492,11.4026162 1.85752296,2.54719732 5.20474254,0 L6.90287409,2.97326282 L6.90287409,2.97326282 Z" id="path1119" stroke-linejoin="round"></path>
                </g>
                <path d="M239.0205,173.546112 C238.87067,173.250452 238.77164,172.947192 238.80042,172.872202 C238.87722,172.672112 240.69367,171.572252 241.60036,171.176862 L242.38338,170.835402 L242.8649,171.024102 C243.32585,171.204742 243.34939,171.234742 243.41592,171.726172 C243.48432,172.231222 243.47772,172.246782 243.01176,172.686312 C242.45096,173.215282 241.48192,173.700352 240.5446,173.921292 C239.42383,174.185472 239.33318,174.163152 239.0205,173.546112 L239.0205,173.546112 Z" id="path3944" stroke="#F2F2F2" stroke-width="2" fill="#F2F2F2" fill-rule="nonzero" stroke-linecap="square" stroke-linejoin="round"></path>
                <g id="g1121" transform="translate(238.109738, 170.245351)" stroke="#000000" stroke-width="1.00000003">
                    <path d="M0.956348453,1.69813155 C1.9586752,1.00539196 3.10200203,0.416869838 4.24839409,0 L5.7350255,0.530282956 L5.94652564,2.23147972 C4.79706836,3.72117635 2.6698061,4.41085072 0.849065774,4.46295945 L0,2.7648279 L0.849065774,0.959413672 L0.956348453,1.69813155 L0.956348453,1.69813155 Z" id="path1123"></path>
                    <path d="M0.956348453,1.69813155 C1.9586752,1.00539196 3.10200203,0.416869838 4.24839409,0 L5.7350255,0.530282956 L5.94652564,2.23147972 C4.79706836,3.72117635 2.6698061,4.41085072 0.849065774,4.46295945 L0,2.7648279 L0.849065774,0.959413672 L0.956348453,1.69813155 L0.956348453,1.69813155 Z" id="path1125" stroke-linejoin="round"></path>
                </g>
                <path d="M215.61158,176.146512 C213.15869,175.711232 212.00559,174.237282 212.95096,172.745582 C213.81357,171.384452 225.01628,170.042202 228.21924,170.916202 C230.43522,171.520892 231.74722,172.862232 231.11907,173.880882 C230.00537,175.686942 220.69058,177.047822 215.61158,176.146512 Z" id="path3930" stroke="#F2F2F2" stroke-width="2" fill="#F2F2F2" fill-rule="nonzero" stroke-linecap="square" stroke-linejoin="round"></path>
                <g id="g1127" transform="translate(211.859382, 169.814506)" stroke="#000000" stroke-width="1.00000003">
                    <path d="M20.3038295,3.82710763 C19.0838722,8.23182791 4.42905827,7.6616971 1.18605614,6.58887031 C0.376838221,5.84708721 -0.101336006,4.03247733 0.018207551,2.97804186 L1.18605614,1.59562791 C5.09114566,0.700583842 20.0678076,-2.47804868 20.3038295,3.82710763 L20.3038295,3.82710763 Z" id="path1129"></path>
                    <path d="M20.3038295,3.82710763 C19.0838722,8.23182791 4.42905827,7.6616971 1.18605614,6.58887031 C0.376838221,5.84708721 -0.101336006,4.03247733 0.018207551,2.97804186 L1.18605614,1.59562791 C5.09114566,0.700583842 20.0678076,-2.47804868 20.3038295,3.82710763 L20.3038295,3.82710763 Z" id="path1131" stroke-linejoin="round"></path>
                </g>
                <path d="M212.86566,187.140142 L212.4178,186.822932 L212.4178,186.052892 L212.4178,185.282852 L213.28718,184.451642 C214.25961,183.521902 215.1132,183.017942 216.11586,182.781602 C217.62352,182.426212 218.47046,182.659022 218.59246,183.462362 C218.64366,183.799352 218.58846,183.898532 217.95702,184.611322 C217.41023,185.228232 217.15861,185.427662 216.75434,185.564522 C216.47316,185.659722 215.7025,186.073062 215.04176,186.483082 C213.87953,187.204302 213.41628,187.471862 213.34679,187.462052 C213.32849,187.459052 213.11198,187.314612 212.86566,187.140142 L212.86566,187.140142 Z" id="path3942" stroke="#F2F2F2" stroke-width="2" fill="#F2F2F2" fill-rule="nonzero" stroke-linecap="square" stroke-linejoin="round"></path>
                <g id="g1133" transform="translate(211.877590, 182.031289)" stroke="#000000" stroke-width="1.00000003">
                    <path d="M7.43315704,1.91252683 L5.62774282,3.93250642 C4.21161146,4.03059344 2.88743667,5.64596406 1.37934873,6.05670346 L0,5.10035501 L0,3.08344064 C1.68587067,0.94698272 3.35641524,-0.061474463 6.15802577,0.00289514436 L7.11437423,0.64046078 L7.43315704,1.91252683 L7.43315704,1.91252683 Z" id="path1135"></path>
                    <path d="M7.43315704,1.91252683 L5.62774282,3.93250642 C4.21161146,4.03059344 2.88743667,5.64596406 1.37934873,6.05670346 L0,5.10035501 L0,3.08344064 C1.68587067,0.94698272 3.35641524,-0.061474463 6.15802577,0.00289514436 L7.11437423,0.64046078 L7.43315704,1.91252683 L7.43315704,1.91252683 Z" id="path1137" stroke-linejoin="round"></path>
                </g>
                <path d="M54.78972,309.552232 C54.78972,309.326142 55.58112,308.357622 56.54839,307.399972 L58.30706,305.658792 L58.01431,302.925142 C57.75047,300.461412 57.80626,300.146162 58.57931,299.732442 C59.99581,298.974352 60.64294,299.201012 61.23638,300.663072 C61.54662,301.427402 62.57509,302.769782 63.52188,303.646132 C64.61286,304.655952 65.09084,305.383802 64.82698,305.633502 C64.40509,306.032772 55.52989,309.963302 55.05024,309.963302 C54.90695,309.963302 54.78972,309.778322 54.78972,309.552232 L54.78972,309.552232 Z" id="path3926" stroke="#F2F2F2" stroke-width="2" fill="#F2F2F2" fill-rule="nonzero" stroke-linecap="square" stroke-linejoin="round"></path>
                <g id="g1139" transform="translate(54.055574, 298.325543)" stroke="#000000" stroke-width="1.00000003">
                    <path d="M6.69137395,0 C7.86535298,1.11267464 8.01861395,2.97632804 9.13435381,4.14111141 C10.0018109,5.04535113 11.0102681,5.36413395 11.6846164,6.58409127 L11.3658335,8.28528804 C7.51591797,9.10676684 4.53039427,11.721399 0.744848314,12.4263994 L0,11.470051 L0.530282956,9.45313663 C1.52954448,8.99948416 2.50428425,8.18107058 3.18476296,7.32893959 C3.73650245,5.48367751 2.84145838,3.380937 2.75869746,1.48663141 C3.59856758,0.66208739 5.56950365,0.076630485 6.69137395,0 L6.69137395,0 Z" id="path1141"></path>
                    <path d="M6.69137395,0 C7.86535298,1.11267464 8.01861395,2.97632804 9.13435381,4.14111141 C10.0018109,5.04535113 11.0102681,5.36413395 11.6846164,6.58409127 L11.3658335,8.28528804 C7.51591797,9.10676684 4.53039427,11.721399 0.744848314,12.4263994 L0,11.470051 L0.530282956,9.45313663 C1.52954448,8.99948416 2.50428425,8.18107058 3.18476296,7.32893959 C3.73650245,5.48367751 2.84145838,3.380937 2.75869746,1.48663141 C3.59856758,0.66208739 5.56950365,0.076630485 6.69137395,0 L6.69137395,0 Z" id="path1143" stroke-linejoin="round"></path>
                </g>
                <path d="M147.03446,361.414142 C146.6178,360.991402 145.57492,360.448572 144.71695,360.207852 C143.85899,359.967132 143.08553,359.555712 142.99815,359.293592 C142.66097,358.282032 145.07409,356.210262 147.89856,355.086412 C151.10865,353.809102 152.71421,352.500222 154.23592,349.920072 C155.23627,348.223912 157.91555,346.309042 159.28847,346.309042 C159.78547,346.309042 159.97375,346.697862 159.96141,347.698732 C159.94881,348.720002 158.95692,350.555822 156.21994,354.623532 C154.17155,357.667842 152.01456,360.503792 151.42661,360.925642 C149.76903,362.114972 147.92712,362.319832 147.03446,361.414142 L147.03446,361.414142 Z" id="path3928" stroke="#F2F2F2" stroke-width="2" fill="#F2F2F2" fill-rule="nonzero" stroke-linecap="square" stroke-linejoin="round"></path>
                <g id="g1145" transform="translate(142.264104, 345.373596)" stroke="#000000" stroke-width="1.00000003">
                    <path d="M18.5285396,4.14111141 C14.6571675,7.5833528 11.7636004,18.6549253 5.04157427,17.309294 L3.87372568,16.0341627 C2.58020309,15.7490973 1.28055007,15.3598144 0.0513970885,14.8663141 C-0.684255567,9.32746263 6.68146665,9.40409312 9.07846822,7.11437423 C12.38584,3.95106781 10.6754475,2.19469709 16.7261906,0 L18.5316049,0.211500139 L18.5316049,4.14111141 L18.5285396,4.14111141 Z" id="path1147"></path>
                    <path d="M18.5285396,4.14111141 C14.6571675,7.5833528 11.7636004,18.6549253 5.04157427,17.309294 L3.87372568,16.0341627 C2.58020309,15.7490973 1.28055007,15.3598144 0.0513970885,14.8663141 C-0.684255567,9.32746263 6.68146665,9.40409312 9.07846822,7.11437423 C12.38584,3.95106781 10.6754475,2.19469709 16.7261906,0 L18.5316049,0.211500139 L18.5316049,4.14111141 L18.5285396,4.14111141 Z" id="path1149" stroke-linejoin="round"></path>
                </g>
                <path d="M445.54339,646.534722 C444.98154,646.090602 444.5612,645.412922 444.37649,644.653452 L444.29319,644.310862 L444.91283,643.151022 C445.25363,642.513112 445.62985,641.757722 445.74889,641.472372 L445.96532,640.953562 L448.13308,639.194282 C450.51398,637.262032 451.20968,636.722082 452.18504,636.049422 C452.91027,635.549272 454.05089,634.891582 454.49988,634.714662 C454.79027,634.600252 454.8011,634.601392 455.48691,634.818802 C458.05666,635.633422 460.44999,637.148042 461.38951,638.554262 C461.61495,638.891692 461.61527,638.959332 461.39351,639.512102 C461.22888,639.923322 461.18947,639.968482 460.8625,640.120442 C460.47928,640.298552 460.01137,640.418682 458.70345,640.674792 C458.2378,640.765992 457.55949,640.957132 457.19609,641.099592 C456.41302,641.406572 452.71586,643.262972 448.77265,645.329112 C447.21641,646.144542 445.93193,646.811722 445.91824,646.811722 C445.90454,646.811722 445.73567,646.687072 445.54293,646.534722 L445.54339,646.534722 Z" id="path3950" stroke="#F2F2F2" stroke-width="2" fill="#F2F2F2" fill-rule="nonzero" stroke-linecap="square" stroke-linejoin="round"></path>
                <g id="g1151" transform="translate(443.721590, 634.037568)" stroke="#000000" stroke-width="1.00000003">
                    <path d="M1.80541423,6.58409127 C4.26065497,4.66832915 8.36191852,0.842935335 11.0470507,0 C13.398074,0.567065589 17.5545115,2.48589293 18.4802078,4.8828945 L17.9499248,6.26530845 C16.7054457,7.1266351 15.0655534,6.96417848 13.7015307,7.54043972 C11.414877,8.50904905 4.83385099,12.0309861 2.23147972,13.3796827 C0.888913626,12.8126171 0.236021894,11.568138 0,10.1949197 C0.634500416,9.02094069 1.31804434,7.83163557 1.80541423,6.58409127 Z" id="path1153"></path>
                    <path d="M1.80541423,6.58409127 C4.26065497,4.66832915 8.36191852,0.842935335 11.0470507,0 C13.398074,0.567065589 17.5545115,2.48589293 18.4802078,4.8828945 L17.9499248,6.26530845 C16.7054457,7.1266351 15.0655534,6.96417848 13.7015307,7.54043972 C11.414877,8.50904905 4.83385099,12.0309861 2.23147972,13.3796827 C0.888913626,12.8126171 0.236021894,11.568138 0,10.1949197 C0.634500416,9.02094069 1.31804434,7.83163557 1.80541423,6.58409127 Z" id="path1155" stroke-linejoin="round"></path>
                </g>
            </g>
            <g id="lines" transform="translate(91.332620, 32.428696)" stroke="#000000">
                <line x1="255.20003" y1="570.366894" x2="303.94611" y2="525.921944" id="path3868" stroke-width="2"></line>
                <line x1="249.38919" y1="478.495574" x2="301.07869" y2="504.416324" id="path3870" stroke-width="2"></line>
                <line x1="313.98206" y1="515.885984" x2="387.10117" y2="495.814074" id="path3872" stroke-width="2"></line>
                <line x1="5.73483" y1="392.587094" x2="74.55282" y2="330.937644" id="path3874" stroke-width="2"></line>
                <line x1="4.26325641e-14" y1="270.721914" x2="80.28765" y2="292.227534" id="path3876" stroke-width="2"></line>
                <line x1="180.64721" y1="369.647764" x2="136.20226" y2="309.432024" id="path3878" stroke-width="2"></line>
                <line x1="393.87917" y1="20.935588" x2="504.13993" y2="2.84217094e-14" id="path3156" stroke-width="2"></line>
                <line x1="95.19813" y1="25.122705" x2="35.18278" y2="64.202464" id="path3160" stroke-width="2"></line>
                <line x1="36.57848" y1="140.966284" x2="192.89753" y2="135.383464" id="path3937" stroke-width="2"></line>
                <line x1="357.59082" y1="586.196444" x2="405.04482" y2="618.297674" id="path3987"></line>
                <line x1="357.59082" y1="586.196444" x2="405.04482" y2="618.297674" id="path3975" stroke-width="2"></line>
                <line x1="365.96505" y1="661.564554" x2="414.81476" y2="639.233264" id="path3979" stroke-width="2"></line>
                <line x1="494.36999" y1="626.671904" x2="434.35464" y2="628.067614" id="path3983" stroke-width="2"></line>
            </g>
            <g id="labels" transform="translate(13.136140, 35.559982)" fill="#000000" fill-rule="nonzero">
                <g id="islands" transform="translate(270.949710, 47.775158)">
                    <text id="reef" font-family="Lato-Italic, Lato" font-size="20" font-style="italic" font-weight="normal">
                        <tspan x="63.30869" y="82.5641">Reef Islands</tspan>
                    </text>
                    <text id="nendo" font-family="Lato-Italic, Lato" font-size="20" font-style="italic" font-weight="normal">
                        <tspan x="13.74231" y="272.86267">Nend</tspan>
                    </text>
                    <text id="utupua" font-family="Lato-Italic, Lato" font-size="20" font-style="italic" font-weight="normal">
                        <tspan x="2.89901436e-12" y="472.33808">Utupua</tspan>
                    </text>
                    <text id="vanikoro" font-family="Lato-Italic, Lato" font-size="20" font-style="italic" font-weight="normal">
                        <tspan x="265.24649" y="537.87061">Vanikoro</tspan>
                    </text>
                    <text id="duff" font-family="Lato-Italic, Lato" font-size="20" font-style="italic" font-weight="normal">
                        <tspan x="312.04587" y="20">Duff Islands</tspan>
                    </text>
                    <text id="temotu" font-family="Lato-Heavy, Lato" font-size="40" font-weight="700">
                        <tspan x="161.42208" y="252.47837">TEMOTU PROVINCE</tspan>
                    </text>
                </g>
                <g id="glossolects" transform="translate(0.000000, 0.000000)" font-family="Lato-Regular, Lato" font-size="28" font-weight="normal">
                    <text id="natugu">
                        <tspan x="0" y="253.405538">Natgu</tspan>
                    </text>
                    <text id="nalogo">
                        <tspan x="12.99199" y="419.563678">Nalgo</tspan>
                    </text>
                    <text id="engdewu">
                        <tspan x="216.84933" y="393.756948">Engdewu</tspan>
                    </text>
                    <text id="amba">
                        <tspan x="269.02347" y="466.876058">Amba</tspan>
                    </text>
                    <text id="asumboa">
                        <tspan x="187.03354" y="577.803608">Asumboa</tspan>
                    </text>
                    <text id="tanibili">
                        <tspan x="437.67953" y="484.156568">Tanibili</tspan>
                    </text>
                    <text id="aiwoo">
                        <tspan x="18.78265" y="146.973278">iwoo</tspan>
                    </text>
                    <text id="vaeakau">
                        <tspan x="209.97732" y="28">Vaeakau-Taumako</tspan>
                    </text>
                    <text id="lovono">
                        <tspan x="391.99002" y="574.962788">Lovono</tspan>
                    </text>
                    <text id="tanema">
                        <tspan x="330.26608" y="669.870808">Tanema</tspan>
                    </text>
                    <text id="teanu">
                        <tspan x="585.17758" y="636.332598">Teanu</tspan>
                    </text>
                </g>
            </g>
        </g>
    </g>
</svg>